<svg id="horizontal_color" data-name="horizontal color" xmlns="http://www.w3.org/2000/svg" viewBox="0 0 515.97 230.87"><defs><style>.cls-1{fill:none;}.cls-2{fill:#101820;}.cls-3{fill:#d22630;}</style></defs><title>Axway_logo_horiz_clr_rgb</title><rect class="cls-1" width="515.97" height="230.87"/><path class="cls-2" d="M195.82,328.14l13-1.94c3-.43,4-1.94,4-3.77,0-3.77-2.9-6.89-8.93-6.89-6.24,0-9.68,4-10.11,8.61l-12.7-2.69c.86-8.28,8.5-17.43,22.7-17.43,16.78,0,23,9.47,23,20.12v26a59.19,59.19,0,0,0,.65,8.39H214.32a36,36,0,0,1-.54-6.35c-2.69,4.2-7.75,7.85-15.6,7.85-11.3,0-18.18-7.64-18.18-15.92C180,334.7,187,329.43,195.82,328.14Zm17,9v-2.37l-11.94,1.83c-3.66.54-6.56,2.58-6.56,6.67,0,3.12,2.26,6.14,6.89,6.14C207.22,349.44,212.81,346.53,212.81,337.17Zm35-5.16-18.83-26.36h17c1.83,2.9,8.71,12.8,10.54,15.71l10.44-15.71h16.25l-18.5,25.93,19.15,27H267L256,342.34c-1.94,2.9-9,13.34-10.87,16.25H228.95Zm85-26.36,11.4,34.1,9.79-34.1h14.2l-16.57,52.93H337.28l-12.37-36.15-12.16,36.15H298.23l-16.89-52.93H296.4l9.79,34,11.51-34Zm49.91,22.49,13-1.94c3-.43,4-1.94,4-3.77,0-3.77-2.9-6.89-8.93-6.89-6.24,0-9.68,4-10.11,8.61l-12.7-2.69c.86-8.28,8.5-17.43,22.7-17.43,16.78,0,23,9.47,23,20.12v26a59.19,59.19,0,0,0,.65,8.39H401.19a36,36,0,0,1-.54-6.35c-2.69,4.2-7.75,7.85-15.6,7.85-11.3,0-18.18-7.64-18.18-15.92C366.86,334.7,373.86,329.43,382.68,328.14Zm17,9v-2.37l-11.94,1.83c-3.66.54-6.56,2.58-6.56,6.67,0,3.12,2.26,6.14,6.89,6.14C394.09,349.44,399.68,346.53,399.68,337.17Zm22.91,42.28,12.48-27.54-22.49-46.26h16l14.09,31,13-31H471l-33.24,73.8Z" transform="translate(-138.02 -190.56)"/><path class="cls-3" d="M599.57,280l0,27L480.91,250.54v-18L584.77,282V255l27.23,13v18Zm-92.09,19.14v18l19,9-30.57,32.36h20.28l36.27-38ZM599.6,316,495.08,266.28v18l83.2,39.57Z" transform="translate(-138.02 -190.56)"/></svg>