<svg xmlns="http://www.w3.org/2000/svg" viewBox="0 0 100 100"><title>create</title><path d="M81.5,17.91v0L81,17.43l-.65-.59-.29-.27c-.45-.4-.9-.79-1.36-1.18l-.25-.2c-.49-.4-1-.78-1.49-1.17l-.18-.14q-.79-.59-1.6-1.14l-.13-.09c-.56-.38-1.13-.74-1.71-1.09l-.11-.07c-.58-.35-1.17-.7-1.76-1l-.13-.07c-.59-.32-1.19-.62-1.79-.92l-.17-.08c-.59-.28-1.18-.55-1.78-.8l-.24-.11-1.73-.68-.06,0-.07,0-.23-.08c-.55-.2-1.09-.39-1.65-.56L63.2,7c-.52-.16-1-.31-1.57-.45L61,6.38c-.49-.12-1-.23-1.49-.34l-.69-.15c-.47-.1-.94-.18-1.42-.26l-.78-.12c-.46-.08-.93-.13-1.4-.18l-.8-.1c-.51-.05-1-.08-1.51-.12l-.72-.05C51.5,5,50.75,5,50,5s-1.5,0-2.24.06L47,5.11c-.5,0-1,.07-1.5.12l-.8.1-1.41.18-.77.13c-.48.07-1,.16-1.43.25L40.43,6c-.5.11-1,.22-1.49.34l-.59.15c-.52.14-1,.29-1.56.45l-.48.15c-.55.17-1.1.36-1.65.56l-.23.08-.06,0-.07,0c-.58.21-1.15.44-1.72.68l-.25.1c-.59.26-1.19.52-1.77.81l-.17.08c-.61.29-1.2.6-1.79.92l-.12.07c-.6.33-1.19.67-1.77,1l-.11.07c-.57.35-1.14.72-1.7,1.09l-.13.1c-.54.37-1.08.75-1.61,1.13L23,14c-.5.37-1,.76-1.48,1.17l-.25.2c-.46.38-.92.78-1.36,1.18l-.29.26c-.21.21-.43.4-.65.59l-.47.45v0a45,45,0,1,0,63,0ZM50,82.94h0ZM38,65.67a16.49,16.49,0,0,1,24,0l-12,15Zm25.85-2.35a19.44,19.44,0,0,0-27.73,0l-14-17.58L35,35.42,48.52,46.23v.15l.46.23.81.59.23-.11.25.11.74-.59.49-.26v-.13L65,35.43,77.89,45.74ZM21.77,18.92h0A41.85,41.85,0,0,1,30,13.08l.05,0c.56-.31,1.13-.6,1.72-.88l.15-.07,1.6-.73v21.4l-12,9.6V19.19l.27-.26Zm16-9.1c.46-.15.93-.28,1.41-.4l.6-.15L41.09,9l.7-.15c.43-.09.85-.16,1.28-.23l.75-.12L45.1,8.3l.77-.09,1.38-.11.68,0h.57V42.38l-12-9.6V10.24l.76-.26.5-.15Zm15-1.73,1.38.11.77.09,1.28.16.75.12c.43.07.86.15,1.28.23l.7.15,1.33.31.6.15c.48.13.94.26,1.41.4l.5.15.76.26V32.78l-12,9.6V8c.19,0,.38,0,.57,0l.68,0Zm15.5,4.08q.87.42,1.71.88l.06,0a42,42,0,0,1,8.19,5.83h0l.27.26V42.38l-12-9.6V11.38l1.6.73.15.07ZM50,92A42,42,0,0,1,18.5,22.26V46l30,37.61v.3h0l.48.23.75.59h0l.23-.12.23.11h0l.7-.58.21-.11.29-.15v-.29L81.5,46V22.26A42,42,0,0,1,50,92Zm0,0"/></svg>