<svg xmlns="http://www.w3.org/2000/svg" viewBox="0 0 100 100"><title>expolore</title><path d="M50,99.39a45,45,0,0,0,9.2-89.06c0-.16,0-.32,0-.49a9.22,9.22,0,1,0-18.44,0c0,.17,0,.32,0,.49A45,45,0,0,0,18.18,86.21,44.71,44.71,0,0,0,50,99.39ZM50,3.69a6.15,6.15,0,0,1,6.14,6.11,45.09,45.09,0,0,0-12.29,0A6.15,6.15,0,0,1,50,3.69Zm-29.65,21A41.59,41.59,0,0,1,48.46,12.5v6.56h3.07V12.5A41.89,41.89,0,0,1,91.89,52.85H85.33v3.07h6.56A41.89,41.89,0,0,1,51.54,96.27V89.72H48.46v6.56A41.89,41.89,0,0,1,8.11,55.92h6.56V52.85H8.11A41.56,41.56,0,0,1,20.35,24.74Zm0,0M58.24,63.5l.86-.84L71.39,33.47l-2-2L40.19,43.75l-.84.86L28.6,72.26l2,2Zm-1.09-4.13L43.48,45.7l23.61-9.94ZM41.36,47.92,54.93,61.49l-22.2,8.63Zm0,0"/></svg>