<svg xmlns="http://www.w3.org/2000/svg" viewBox="0 0 100 100"><title>manage</title><path d="M33.5,72.5a6,6,0,1,0-6-6,6,6,0,0,0,6,6Zm0-9a3,3,0,1,1-3,3,3,3,0,0,1,3-3Zm0,0M71,23a6,6,0,1,0,6,6,6,6,0,0,0-6-6Zm0,9a3,3,0,1,1,3-3,3,3,0,0,1-3,3Zm0,0M33.5,78.5a12,12,0,1,0-12-12,12,12,0,0,0,12,12Zm0-21a9,9,0,1,1-9,9,9,9,0,0,1,9-9Zm0,0,60.28,2.87c.18-.76.34-1.53.48-2.3a.77.77,0,0,1,0-.13v0A45.67,45.67,0,0,0,95,50a44.88,44.88,0,0,0-3.52-17.46.28.28,0,0,1,0-.07,45,45,0,0,0-7-11.33A45.51,45.51,0,0,0,79,15.6,44.85,44.85,0,0,0,67.54,8.54h-.07A44.73,44.73,0,0,0,42.35,5.66h0l-.12,0c-.61.11-1.22.22-1.81.35l-.1,0a44.52,44.52,0,0,0-7,2.15l-.62.24c-.34.14-.67.29-1,.44l-1,.44L30,9.71l-.22.11-.06,0-.27.14-.62.33-.55.31-.65.35-.74.44-.38.23c-.53.32-1,.65-1.55,1l-.15.1-.8.54-.1.08c-.56.4-1.11.81-1.65,1.24l-.05,0h0a45.39,45.39,0,0,0-6.77,6.58.39.39,0,0,0-.06.1A44.86,44.86,0,0,0,6.9,62.93s0,0,0,0l0,.15c.25.81.52,1.63.81,2.42.1.29.22.56.33.84.18.46.37.93.56,1.38s.41.93.63,1.39c.1.21.2.43.31.64A44.81,44.81,0,0,0,30.24,90.42l.61.29c.47.22.94.44,1.42.65s.87.36,1.32.53l.9.36c.79.29,1.59.55,2.39.8l.16.05h.05A44.84,44.84,0,0,0,70.78,89.9l.12,0,.32-.18c.36-.19.72-.4,1.08-.61s.67-.37,1-.58c.64-.38,1.26-.78,1.87-1.2l.78-.55c.41-.29.81-.58,1.21-.88l.67-.52c.44-.35.88-.7,1.3-1.07l.48-.42c.53-.45,1-.92,1.53-1.41l.18-.17c.72-.7,1.43-1.42,2.1-2.17l.07-.06a44.89,44.89,0,0,0,7.93-12.47l.2-.5c.16-.4.33-.78.48-1.18a.12.12,0,0,0,0-.05,44.57,44.57,0,0,0,1.64-5.33c0-.05,0-.1,0-.15ZM78.56,80.75c-.37.35-.75.69-1.14,1-.15.13-.29.26-.45.39s-.62.51-.93.76-.48.38-.73.56-.48.36-.73.54l-.69.49A7.08,7.08,0,0,0,68.07,76l-1.57-.24V73.08L68,72.79a7.08,7.08,0,0,0,4.37-11.13l-.94-1.27,1.88-1.89,1.92,1.31a7.07,7.07,0,0,0,10.91-4.52L86.58,53h2.67l.24,1.57a6.89,6.89,0,0,0,1.71,3.62,41.69,41.69,0,0,1-1.48,5.42A9.75,9.75,0,0,0,78.5,73.25,9.65,9.65,0,0,0,80.37,79c-.53.56-1.08,1.11-1.64,1.64l-.17.15ZM88,67.86a42.62,42.62,0,0,1-5.57,8.78,6.66,6.66,0,0,1-.91-3.39,6.75,6.75,0,0,1,6.74-6.74h.34c-.17.4-.34.78-.52,1.17a1.45,1.45,0,0,0-.08.17ZM71,47A18,18,0,0,1,66.77,11.5,42.4,42.4,0,0,1,75,16.26l.15.11c.42.32.81.63,1.22,1l.39.31.88.76c.21.19.43.37.64.55l.33.32c.76.71,1.49,1.44,2.21,2.21l.25.26.59.67c.25.29.5.57.74.86l.32.4c.32.4.64.79.95,1.2l.12.17a41.82,41.82,0,0,1,4.75,8.19A18.07,18.07,0,0,1,71,47ZM39.84,9.25a6,6,0,0,0,4.71,7.07l1,.18v1.63l-1,.15a6,6,0,0,0-4,9.22l.54.81-1.15,1.15-.26-.2a6,6,0,0,0-9.41,3.9l-.05.33H28.51l-.18-.95A6,6,0,0,0,19,28.87l-.81.6L17,28.32l.54-.8a5.86,5.86,0,0,0,.77-5l.45-.51c.38-.43.78-.85,1.17-1.25s.83-.84,1.27-1.25l.61-.55a7.48,7.48,0,1,0,12-7.68c.92-.39,1.85-.73,2.8-1.06l.29-.09c1-.32,2-.62,3-.86ZM24.51,16.66l.37-.29c.6-.45,1.22-.87,1.85-1.3.3-.2.6-.41.91-.6l.12-.08c.63-.4,1.28-.76,1.94-1.12.29-.16.56-.33.86-.48A4.5,4.5,0,1,1,24.5,17c0-.11,0-.23,0-.34Zm.16,27.52a.78.78,0,0,0,.13,0c.06,0,.09-.07.14-.09A24,24,0,0,1,55.47,76.18s0,0-.05.07,0,.07,0,.1A23.84,23.84,0,0,1,37.58,90.12h0c-.74-.23-1.46-.48-2.19-.75l-1-.4-1-.42c-.45-.19-.89-.39-1.33-.6l-.48-.23A42.24,42.24,0,0,1,12.28,68.45c-.08-.15-.15-.31-.23-.47-.21-.44-.41-.88-.61-1.33s-.29-.68-.43-1-.27-.67-.4-1c-.26-.72-.52-1.45-.75-2.19h0A23.81,23.81,0,0,1,24.67,44.18ZM43.58,91.51a26.74,26.74,0,0,0,14-12.69l2.35,1a1.53,1.53,0,0,0,.62.13,1.5,1.5,0,0,0,.61-2.87l-2.34-1A27.27,27.27,0,0,0,60.5,66.5a26.83,26.83,0,0,0-1.35-8.37L61,57.4A1.5,1.5,0,1,0,60,54.61l-1.9.73A27.15,27.15,0,0,0,45.81,42.5l1.06-2.39a1.5,1.5,0,0,0-2.75-1.22l-1.06,2.4A26.73,26.73,0,0,0,33.5,39.5a27.1,27.1,0,0,0-8.37,1.34L24.39,39A1.5,1.5,0,0,0,21.6,40l.73,1.87A26.7,26.7,0,0,0,8.49,56.42,42,42,0,0,1,13.65,29a1.49,1.49,0,0,0,.34.56l2.94,2.94a1.5,1.5,0,0,0,1.95.15l1.85-1.36a3,3,0,0,1,4.65,1.82l.42,2.17a1.51,1.51,0,0,0,1.47,1.22h4.16a1.5,1.5,0,0,0,1.48-1.28l.24-1.6a2.93,2.93,0,0,1,1.79-2.28,2.9,2.9,0,0,1,2.88.34l1.3,1a1.5,1.5,0,0,0,1.95-.15L44,29.57a1.5,1.5,0,0,0,.18-1.91L43,25.84a3,3,0,0,1,2-4.58l2.27-.35a1.5,1.5,0,0,0,1.27-1.48V15.27a1.49,1.49,0,0,0-1.21-1.47l-2.17-.42a3,3,0,0,1-1.82-4.65l.15-.21a42.14,42.14,0,0,1,19,1.36,20.94,20.94,0,0,0-5.13,3.27L56.15,12A1.5,1.5,0,1,0,54,14.15l1.13,1.13A21,21,0,0,0,50.07,27.5H48.5a1.5,1.5,0,1,0,0,3h1.58a20.87,20.87,0,0,0,5.08,12.23L54,43.85A1.5,1.5,0,0,0,54,46a1.52,1.52,0,0,0,1.06.45A1.5,1.5,0,0,0,56.15,46l1.11-1.11A20.9,20.9,0,0,0,69.5,49.92V51.5a1.5,1.5,0,0,0,3,0V49.93a21,21,0,0,0,12.23-5.09L85.85,46a1.47,1.47,0,0,0,1.06.44A1.5,1.5,0,0,0,88,43.85l-1.11-1.11a21.16,21.16,0,0,0,3.27-5.13A41.78,41.78,0,0,1,92,50c0,.39,0,.77,0,1.16A1.49,1.49,0,0,0,90.53,50H85.34a1.5,1.5,0,0,0-1.47,1.22l-.67,3.5a4.08,4.08,0,0,1-6.28,2.6l-2.95-2a1.51,1.51,0,0,0-1.9.18l-3.67,3.67a1.5,1.5,0,0,0-.15,1.95l1.7,2.32a4.06,4.06,0,0,1-2.51,6.4l-2.71.52a1.51,1.51,0,0,0-1.22,1.47V77a1.51,1.51,0,0,0,1.27,1.49l2.84.43a4.08,4.08,0,0,1,2.75,6.31l-1.54,2.27a42,42,0,0,1-25.25,4Zm0,0"/></svg>