<svg xmlns="http://www.w3.org/2000/svg" viewBox="0 0 100 100"><title>community</title><path d="M93.42,35.9H58.75A30,30,0,1,0,23.62,73.43L31,80.83a3.24,3.24,0,0,0,5.52-2.29V73.36a30,30,0,0,0,3.55-1v.21a6.58,6.58,0,0,0,6.58,6.58h11L63.58,85a2.74,2.74,0,0,0,4.68-1.94V79.12H93.42A6.58,6.58,0,0,0,100,72.54V42.48A6.58,6.58,0,0,0,93.42,35.9ZM34.69,70.54a1.57,1.57,0,0,0-1.29,1.54v6.46a.1.1,0,0,1-.18.07L25.5,70.89a1.56,1.56,0,0,0-.8-.43,26.83,26.83,0,0,1,2.19-53,28.19,28.19,0,0,1,3.1-.17,26.52,26.52,0,0,1,17.85,6.84A26.81,26.81,0,0,1,34.69,70.54Zm62.18,2A3.45,3.45,0,0,1,93.42,76H66.7a1.57,1.57,0,0,0-1.57,1.57v4.57l-5.68-5.68A1.56,1.56,0,0,0,58.35,76H46.66a3.45,3.45,0,0,1-3.44-3.44V71A29.91,29.91,0,0,0,59.47,39h34a3.45,3.45,0,0,1,3.44,3.44V72.54Zm-9-22.28L71.15,67a1.57,1.57,0,0,1-2.21,0l-8.35-8.35a1.57,1.57,0,0,1,2.21-2.21L70,63.65,85.64,48.05a1.57,1.57,0,1,1,2.21,2.21ZM31.52,57.52h0A1.57,1.57,0,0,1,30,59.09h0a1.57,1.57,0,0,1-1.57-1.57h0A1.57,1.57,0,0,1,30,55.95h0A1.57,1.57,0,0,1,31.52,57.52Zm8.35-18.37a10,10,0,0,1-7.06,9.5,1.77,1.77,0,0,0-1.29,1.69v.5a1.57,1.57,0,0,1-3.13,0v-.5a4.88,4.88,0,0,1,3.52-4.69,6.83,6.83,0,0,0,4.83-6.5A6.91,6.91,0,0,0,30,32.36a6.79,6.79,0,0,0-6.78,6.79,1.57,1.57,0,0,1-3.13,0A9.93,9.93,0,0,1,30,29.23a10,10,0,0,1,9.92,9.92Z"/></svg>