<?xml version="1.0" standalone="no"?>
<!DOCTYPE svg PUBLIC "-//W3C//DTD SVG 1.1//EN" "http://www.w3.org/Graphics/SVG/1.1/DTD/svg11.dtd" >
<svg xmlns="http://www.w3.org/2000/svg">
<metadata>Generated by IcoMoon</metadata>
<defs>
<font id="Axway-Common" horiz-adv-x="1024">
<font-face units-per-em="1024" ascent="960" descent="-64" />
<missing-glyph horiz-adv-x="1024" />
<glyph unicode="&#x20;" horiz-adv-x="512" d="" />
<glyph unicode="&#xe900;" glyph-name="common-001-home" d="M719.258 70.349h-138.138c-0.35-0.020-0.759-0.031-1.171-0.031-11.609 0-21.11 9.027-21.865 20.445l-0.003 143.426h-92.16v-143.36c-0.759-11.484-10.26-20.511-21.869-20.511-0.412 0-0.821 0.011-1.228 0.034l-138.184-0.002c-38.093 0-69.12 27.546-69.12 61.44v250.88l-52.019-51.2c-4.472-4.189-10.502-6.762-17.134-6.762-5.797 0-11.135 1.966-15.384 5.268l-92.103 73.276c-4.334 3.33-7.225 8.353-7.676 14.063-0.020 0.356-0.029 0.692-0.029 1.030 0 5.462 2.287 10.39 5.955 13.878l406.843 399.368c12.449 11.939 29.379 19.291 48.026 19.291s35.577-7.351 48.050-19.314l406.811-399.337c3.675-3.528 5.959-8.482 5.959-13.97 0-0.309-0.007-0.616-0.022-0.922-0.454-5.735-3.344-10.758-7.632-14.054l-92.206-73.353c-4.192-3.26-9.53-5.226-15.327-5.226-6.631 0-12.662 2.573-17.148 6.775l-52.005 51.187v-250.88c0-33.894-30.72-61.44-69.12-61.44v0zM604.16 111.309h115.098c0.35-0.020 0.759-0.031 1.171-0.031 11.609 0 21.11 9.027 21.865 20.445l0.003 304.092c0.235 9.059 6.317 16.636 14.601 19.112 2.592 0.913 5.415 1.419 8.356 1.419 6.656 0 12.706-2.592 17.197-6.821l76.787-75.457 57.856 45.773-391.373 384.717c-3.516 3.586-8.41 5.809-13.824 5.809s-10.308-2.223-13.821-5.806l-391.273-384.72 57.856-45.978 76.8 75.469c4.491 4.209 10.548 6.794 17.209 6.794 2.931 0 5.746-0.501 8.363-1.421 8.252-2.458 14.335-10.036 14.569-19.068l0.001-303.847c0.759-11.484 10.26-20.511 21.869-20.511 0.412 0 0.821 0.011 1.228 0.034l115.144-0.002v143.36c0.759 11.484 10.26 20.511 21.869 20.511 0.412 0 0.821-0.011 1.228-0.034l138.184 0.002c0.35 0.020 0.759 0.031 1.171 0.031 11.609 0 21.11-9.027 21.865-20.445l0.003-143.426z" />
<glyph unicode="&#xe901;" glyph-name="common-002-menu" d="M168.96 660.48c0 19.794 16.046 35.84 35.84 35.84h614.4c19.794 0 35.84-16.046 35.84-35.84s-16.046-35.84-35.84-35.84h-614.4c-19.794 0-35.84 16.046-35.84 35.84zM819.2 491.52h-614.4c-19.794 0-35.84-16.046-35.84-35.84s16.046-35.84 35.84-35.84h614.4c19.794 0 35.84 16.046 35.84 35.84s-16.046 35.84-35.84 35.84zM819.2 286.72h-614.4c-19.794 0-35.84-16.046-35.84-35.84s16.046-35.84 35.84-35.84h614.4c19.794 0 35.84 16.046 35.84 35.84s-16.046 35.84-35.84 35.84z" />
<glyph unicode="&#xe902;" glyph-name="common-003-gear" d="M512 334.131c-69.957 0-126.669 56.712-126.669 126.669s56.712 126.669 126.669 126.669c69.957 0 126.669-56.712 126.669-126.669-0.058-69.934-56.735-126.611-126.663-126.669zM512 545.178c-46.657 0-84.48-37.823-84.48-84.48s37.823-84.48 84.48-84.48c46.657 0 84.48 37.823 84.48 84.48 0 0.036 0 0.072 0 0.108-0.058 46.607-37.859 84.372-84.48 84.372 0 0 0 0 0 0zM412.058 51.2c-0.023 0-0.050 0-0.078 0-1.868 0-3.674 0.262-5.385 0.751-40.927 10.658-76.946 25.949-110.015 45.672-4.395 2.665-8.563 9.431-8.563 17.17 0 3.717 0.962 7.21 2.65 10.243 6.339 11.502 10.1 25.337 10.1 40.051 0 46.657-37.823 84.48-84.48 84.48-14.714 0-28.549-3.762-40.597-10.376-2.48-1.391-5.959-2.339-9.659-2.339-7.742 0-14.514 4.15-18.214 10.348-18.721 31.248-34.043 67.261-44.142 105.399-1.074 4.494-1.311 6.285-1.311 8.13 0 9.244 5.947 17.1 14.223 19.95 33.923 11.58 57.777 43.039 57.777 80.070s-23.855 68.49-57.035 79.849c-9.031 3.064-14.989 10.926-14.989 20.179 0 1.88 0.246 3.703 0.707 5.438 10.714 40.923 26.036 76.938 45.777 110.010 2.662 4.391 9.428 8.559 17.167 8.559 3.717 0 7.21-0.962 10.243-2.65 11.538-6.387 25.424-10.179 40.196-10.179 46.657 0 84.48 37.823 84.48 84.48 0 14.745-3.778 28.608-10.418 40.674-1.413 2.489-2.374 5.981-2.374 9.699 0 7.739 4.168 14.505 10.381 18.175 31.249 18.723 67.263 34.044 105.401 44.142 4.521 1.089 6.344 1.335 8.224 1.335 9.253 0 17.115-5.958 19.958-14.247 11.58-33.923 43.039-57.777 80.070-57.777s68.49 23.855 79.849 57.035c3.071 9.019 10.927 14.965 20.171 14.965 1.846 0 3.636-0.237 5.343-0.682 40.924-10.715 76.939-26.037 110.010-45.778 4.374-2.691 8.524-9.463 8.524-17.205 0-3.7-0.948-7.179-2.615-10.207-6.361-11.516-10.136-25.375-10.136-40.115 0-46.657 37.823-84.48 84.48-84.48 14.687 0 28.499 3.748 40.532 10.34 2.486 1.412 5.979 2.374 9.696 2.374 7.739 0 14.505-4.168 18.175-10.381 18.709-31.251 34-67.269 44.046-105.415 1.082-4.508 1.328-6.33 1.328-8.21 0-9.253-5.958-17.115-14.247-19.958-33.923-11.58-57.777-43.039-57.777-80.070s23.855-68.49 57.035-79.849c9.019-3.071 14.965-10.927 14.965-20.171 0-1.846-0.237-3.636-0.682-5.343-10.662-40.918-25.953-76.937-45.673-110.008-2.694-4.376-9.466-8.527-17.208-8.527-3.7 0-7.179 0.948-10.207 2.615-11.48 6.312-25.288 10.058-39.971 10.058-46.657 0-84.48-37.823-84.48-84.48 0-14.656 3.732-28.441 10.298-40.455 1.391-2.477 2.339-5.956 2.339-9.656 0-7.742-4.15-14.514-10.348-18.214-31.249-18.708-67.268-33.998-105.413-44.046-4.5-1.080-6.313-1.324-8.184-1.324-9.233 0-17.074 5.961-19.884 14.244-11.579 33.922-43.038 57.777-80.069 57.777s-68.49-23.855-79.849-57.035c-3.115-9.007-10.982-14.934-20.234-14.934-0.149 0-0.297 0.002-0.445 0.005h0.022zM512 165.274c0.013 0 0.028 0 0.043 0 48.328 0 90.329-27.086 111.651-66.906 25.010 7.003 46.132 15.896 66.187 26.533-6.465 11.337-9.011 25.564-9.011 40.387 0 69.957 56.712 126.669 126.669 126.669 14.851 0 29.105-2.556 42.346-7.251 8.823 18.265 17.75 39.352 24.706 61.315-39.81 24.322-66.921 66.359-66.921 114.728s27.111 90.407 66.966 111.745c-7.061 24.982-15.986 46.065-26.64 66.088-11.332-6.468-25.559-9.014-40.382-9.014-69.957 0-126.669 56.712-126.669 126.669 0 14.851 2.556 29.105 7.251 42.346-18.289 8.789-39.413 17.684-61.411 24.607-24.328-39.813-66.365-66.924-114.735-66.924s-90.407 27.111-111.745 66.966c-25-6.985-46.122-15.879-66.172-26.526 6.441-11.331 8.982-25.545 8.982-40.353 0-69.957-56.712-126.669-126.669-126.669-14.807 0-29.021 2.541-42.23 7.21-8.769-18.251-17.662-39.339-24.6-61.295 39.806-24.341 66.917-66.378 66.917-114.747s-27.111-90.407-66.966-111.745c7.001-24.968 15.894-46.055 26.529-66.075 11.34 6.455 25.568 9.001 40.39 9.001 69.957 0 126.669-56.712 126.669-126.669 0-14.851-2.556-29.105-7.251-42.346 18.271-8.757 39.393-17.65 61.38-24.596 24.343 39.765 66.344 66.851 114.671 66.851 0.015 0 0.030 0 0.045 0z" />
<glyph unicode="&#xe903;" glyph-name="common-004-floppy" d="M655.36 624.64h-81.92c-11.311 0-20.48 9.169-20.48 20.48v122.88c0 11.311 9.169 20.48 20.48 20.48h81.92c11.311 0 20.48-9.169 20.48-20.48v-122.88c0-11.311-9.169-20.48-20.48-20.48zM583.68 655.36h61.44v102.4h-61.44v-102.4zM915.558 762.061l-102.4 102.4c-3.7 3.671-8.796 5.939-14.422 5.939-0.006 0-0.011 0-0.017 0h-675.839c-11.311 0-20.48-9.169-20.48-20.48v-778.24c0-11.311 9.169-20.48 20.48-20.48h778.24c11.311 0 20.48 9.169 20.48 20.48v675.84c0 0.005 0 0.011 0 0.016 0 5.677-2.31 10.814-6.041 14.524zM348.16 829.44h368.64v-245.76h-368.64v245.76zM757.76 92.16h-491.52v327.68h491.52v-327.68zM880.64 92.16h-81.92v348.16c0 11.311-9.169 20.48-20.48 20.48h-532.48c-11.311 0-20.48-9.169-20.48-20.48v-348.16h-81.92v737.28h163.84v-266.24c0-11.311 9.169-20.48 20.48-20.48h409.6c11.311 0 20.48 9.169 20.48 20.48v266.24h32.461l90.419-90.419v-646.861z" />
<glyph unicode="&#xe904;" glyph-name="common-005-pencil" d="M896.102 824.422c-22.085 22.066-52.585 35.713-86.272 35.713s-64.187-13.647-86.273-35.714l-522.854-522.956c-2.078-2.056-3.716-4.551-4.766-7.334l-81.967-225.421c-0.78-2.080-1.231-4.484-1.231-6.993 0-11.311 9.169-20.48 20.48-20.48 2.537 0 4.966 0.461 7.209 1.305l225.139 81.873c2.912 1.088 5.403 2.69 7.48 4.715l523.055 522.748c22.066 22.085 35.713 52.585 35.713 86.272s-13.647 64.187-35.714 86.273l0.001-0.001zM347.443 161.178l-180.019-65.434 65.434 180.019 453.939 453.939 114.586-114.586zM867.123 680.858l-36.762-36.762-114.586 114.586 36.762 36.762c14.436 13.515 33.899 21.815 55.3 21.815 44.734 0 80.998-36.264 80.998-80.998 0-21.402-8.3-40.864-21.857-55.345l0.042 0.045z" />
<glyph unicode="&#xe905;" glyph-name="common-006-trash" d="M747.52 788.48h-143.36v20.48c0 33.932-27.508 61.44-61.44 61.44h-81.92c-33.932 0-61.44-27.508-61.44-61.44v-20.48h-143.36c-33.932 0-61.44-27.508-61.44-61.44v-40.96c0-0.010 0-0.021 0-0.032 0-26.591 16.893-49.237 40.532-57.791l0.428-515.617c0-33.932 27.508-61.44 61.44-61.44h409.6c33.932 0 61.44 27.508 61.44 61.44v515.482c24.067 8.689 40.96 31.335 40.96 57.926 0 0.011 0 0.023 0 0.034v40.958c0 33.932-27.508 61.44-61.44 61.44zM440.32 808.96c0 11.311 9.169 20.48 20.48 20.48h81.92c11.311 0 20.48-9.169 20.48-20.48v-20.48h-122.88v20.48zM706.56 92.16h-409.6c-11.311 0-20.48 9.169-20.48 20.48v512h450.56v-512c0-11.311-9.169-20.48-20.48-20.48zM768 686.080c0-11.311-9.169-20.48-20.48-20.48h-491.52c-11.311 0-20.48 9.169-20.48 20.48v40.96c0 11.311 9.169 20.48 20.48 20.48h491.52c11.311 0 20.48-9.169 20.48-20.48v-40.96zM645.12 563.2v-409.6c0-11.311-9.169-20.48-20.48-20.48s-20.48 9.169-20.48 20.48v409.6c0 11.311 9.169 20.48 20.48 20.48s20.48-9.169 20.48-20.48zM522.24 563.2v-409.6c0-11.311-9.169-20.48-20.48-20.48s-20.48 9.169-20.48 20.48v409.6c0 11.311 9.169 20.48 20.48 20.48s20.48-9.169 20.48-20.48zM399.36 563.2v-409.6c0-11.311-9.169-20.48-20.48-20.48s-20.48 9.169-20.48 20.48v409.6c0 11.311 9.169 20.48 20.48 20.48s20.48-9.169 20.48-20.48z" />
<glyph unicode="&#xe906;" glyph-name="common-007-user" d="M860.979 258.765c-20.516 13.784-44.482 24.394-70.21 30.429-11.71 3.056-22.974 5.513-34.238 7.971-46.797 10.24-91.238 20.48-124.723 59.802l6.758-2.253-12.493 10.24c-2.56 7.475 0.717 29.901 30.72 66.048 74.342 90.829 57.446 233.062 50.586 274.432-14.848 89.088-98.509 156.262-194.56 156.262s-180.736-67.379-195.379-156.467c-6.861-40.96-23.654-183.706 50.586-274.432 32.666-39.936 32.666-61.44 30.003-66.867-34.304-45.158-80.589-55.603-130.458-66.97-11.264-2.458-21.402-4.813-31.334-7.373-27.754-6.119-52.265-16.755-74.012-31.218-78.052-55.515-60.644-174.503-60.644-179.623l3.277-17.306h814.285l2.458 17.203c1.229 5.12 18.125 124.109-60.621 180.122zM433.664 336.589c5.632 7.27 30.72 47.309-30.72 122.88s-47.104 201.83-40.96 238.592c11.264 67.584 75.878 118.579 150.323 118.579s139.059-51.2 150.323-118.579c6.144-36.762 21.299-162.406-40.96-238.49s-36.557-115.405-30.72-122.88c44.032-58.266 103.629-71.68 156.16-83.251h1.126c10.24-2.253 20.48-4.506 30.106-7.066 21.672-4.8 40.802-13.168 57.74-24.547 39.744-28.292 44.455-88.503 43.533-119.223h-734.515c-1.024 30.72 3.686 90.829 44.134 119.603 16.688 11.025 36.185 19.457 57.096 24.151 10.897 2.678 20.933 5.033 31.070 7.286 52.531 11.366 111.718 24.678 156.262 82.944z" />
<glyph unicode="&#xe907;" glyph-name="common-008-users" d="M952.32 213.606l-9.318 81.92s0 0.819 0 1.126c-3.072 16.896-23.757 28.16-77.824 53.658l-2.253 1.126c-6.144 2.97-9.114 5.837-14.848 8.602-30.513 16.969-56.815 36.614-80.17 59.277l0.093 8.204c8.652 12.613 17.106 27.139 24.49 42.283l-3.396 1.237h-0.614l2.253 1.434c2.97 5.427 6.758 14.029 7.987 15.462 10.658 17.013 17.948 37.192 20.419 58.835 0.061 10.899 0.061 19.603-10.179 24.928v47.923c0 0.614 0 1.229-0.512 1.741-8.806 86.733-83.456 105.677-121.446 103.834-38.4 1.843-113.562-16.998-122.573-103.834 0-0.614-1.229-1.229-1.229-1.741v-47.821c0-5.325-9.523-13.517-9.523-23.757 2.566-22.090 9.852-42.056 20.825-59.466 0.884-0.95 5.083-8.221 7.95-13.546l1.843-0.819c10.073-18.015 20.034-33.271 30.903-47.809l-0.797-7.282c-20.48-13.824-57.139-45.466-84.173-58.675-5.837-2.867-12.698-5.734-18.944-8.704l-2.56-1.024c-11.981-5.632-22.323-10.24-30.72-15.053-20.474 6.227-38.114 13.704-54.763 22.771-2.158 5.075-4.337 12.167-4.337 19.768 0 1.066 0.043 2.122 0.127 3.166 36.969 1.964 71.045 12.647 100.809 29.933 3.752 2.636 6.894 8.060 6.894 14.217s-3.142 11.581-7.909 14.756c-16.551 10.997-20.545 46.633-25.972 95.887-2.56 23.552-5.53 48.128-10.24 78.438-14.746 90.522-97.69 112.64-139.571 112.64h-4.096c-41.984-0.205-125.235-22.016-139.981-112.845-4.915-30.106-7.885-55.808-10.24-79.462-5.734-49.050-9.728-84.378-26.112-94.618-4.775-3.133-7.885-8.462-7.885-14.517 0-0.008 0-0.017 0-0.025 0.018-6.11 3.164-11.482 7.921-14.601 28.773-16.644 62.837-27.282 99.188-29.401 0.694-0.966 0.738-2.057 0.738-3.159 0-7.285-1.946-14.115-5.345-20-13.955-5.914-30.763-11.501-48.128-15.654-64.614-17.637-103.117-29.823-111.513-54.092l-24.883-71.68c-0.63-1.688-0.994-3.638-0.994-5.673 0-3.722 1.219-7.16 3.278-9.936 3.154-4.264 8.216-7.027 13.924-7.027 0.17 0 0.339 0.002 0.507 0.007l845.185-0.001c0.102-0.002 0.221-0.003 0.341-0.003 5.082 0 9.659 2.165 12.858 5.624 2.86 3.044 4.61 7.138 4.61 11.64 0 0.629-0.034 1.25-0.101 1.862zM296.96 400.691c-1.264 8.445-8.34 14.887-16.971 15.155-28.349 0.655-55.179 6.234-79.958 15.909 15.009 22.185 18.695 55.362 23.815 100.725 2.56 23.040 5.427 49.050 10.24 78.131 13.926 85.606 105.779 84.582 106.803 84.685 17.641-0.448 34.294-4.17 49.54-10.576 29.988-12.119 52.276-39.966 56.6-73.443 4.861-29.645 7.729-55.86 10.289-79.309 5.018-45.158 8.704-78.234 22.221-100.966-23.177-9.163-50.003-14.777-78.051-15.457-8.944-0.274-16.020-6.716-17.271-15.063-0.729-4.808-6.156-46.997 14.938-68.091 11.434-8.387 24.629-15.331 38.799-20.173-3.151-4.167-6.111-9.299-7.232-15.087s-0.028-2.833-0.028-3.243l-7.782-68.608h-308.429l16.384 48.742c5.632 10.24 63.693 26.829 85.606 32.87 36.864 10.24 56.422 16.282 65.434 25.293 20.992 21.094 15.565 63.693 15.053 68.506zM458.65 225.28l6.656 60.621c16.537 10.894 35.657 21.426 55.6 30.459l4.201 2.309c6.554 3.072 13.107 6.451 19.251 9.421 39.014 18.944 95.13 68.608 95.642 69.12 3.203 3.111 5.191 7.459 5.191 12.271 0 0.547-0.026 1.087-0.076 1.621l0.005 23.074c0.041 0.44 0.064 0.952 0.064 1.469 0 4.035-1.415 7.74-3.775 10.646-9.984 12.924-18.999 27.58-26.387 43.158-4.443 9.315-8.498 16.026-13.080 22.33-4.664 9.613-8.633 21.235-11.047 33.415 1.134 1.805 2.609 2.689 4.145 3.47 5.243 3.397 8.641 8.832 9.116 15.084l0.004 54.748c0 73.318 75.264 71.68 83.149 71.168h4.096c7.885 0.512 76.595 2.253 86.835-70.861v-54.989c-0.179-0.896-0.282-1.925-0.282-2.979 0-4.502 1.874-8.566 4.885-11.454 0.629-0.798 1.147-1.713 1.518-2.699-2.779-13.153-6.946-24.717-12.436-35.495-4.381-5.373-8.743-12.356-12.401-19.749-8.557-17.716-17.801-32.333-28.46-45.777-2.356-2.566-4.028-6.628-4.028-11.081 0-0.142 0.002-0.283 0.005-0.424v-23.121c-0.008-0.201-0.013-0.436-0.013-0.672 0-5.045 2.172-9.583 5.631-12.73 0.628-0.013 57.46-49.984 96.577-68.928l19.046-9.216 1.638-0.819c22.554-10.487 41.693-21.445 59.807-33.797l4.91-59.592h-455.987z" />
<glyph unicode="&#xe908;" glyph-name="common-009-glass" d="M899.482 88.986l-240.23 262.042c51.129 55.252 82.492 129.442 82.492 210.958 0 171.754-139.234 310.989-310.989 310.989s-310.989-139.234-310.989-310.989c0-171.754 139.234-310.989 310.989-310.989 72.229 0 138.706 24.624 191.496 65.934l239.445-262.556c4.7-5.119 11.423-8.315 18.893-8.315 14.15 0 25.621 11.471 25.621 25.621 0 6.68-2.557 12.763-6.745 17.324zM430.080 824.32c144.213 0 261.12-116.907 261.12-261.12s-116.907-261.12-261.12-261.12c-144.213 0-261.12 116.907-261.12 261.12 0.175 144.142 116.978 260.945 261.103 261.12z" />
<glyph unicode="&#xe909;" glyph-name="common-010-glass-minus" d="M899.482 88.986l-240.23 262.042c51.129 55.252 82.492 129.442 82.492 210.958 0 171.754-139.234 310.989-310.989 310.989s-310.989-139.234-310.989-310.989c0-171.754 139.234-310.989 310.989-310.989 72.229 0 138.706 24.624 191.496 65.934l239.445-262.556c4.7-5.119 11.423-8.315 18.893-8.315 14.15 0 25.621 11.471 25.621 25.621 0 6.68-2.557 12.763-6.745 17.324zM430.080 824.32c144.213 0 261.12-116.907 261.12-261.12s-116.907-261.12-261.12-261.12c-144.213 0-261.12 116.907-261.12 261.12 0.175 144.142 116.978 260.945 261.103 261.12zM593.92 542.72h-327.68c-11.311 0-20.48 9.169-20.48 20.48s9.169 20.48 20.48 20.48h327.68c11.311 0 20.48-9.169 20.48-20.48s-9.169-20.48-20.48-20.48z" />
<glyph unicode="&#xe90a;" glyph-name="common-011-glass-plus" d="M899.482 88.986l-240.23 262.042c51.129 55.252 82.492 129.442 82.492 210.958 0 171.754-139.234 310.989-310.989 310.989s-310.989-139.234-310.989-310.989c0-171.754 139.234-310.989 310.989-310.989 72.229 0 138.706 24.624 191.496 65.934l239.445-262.556c4.7-5.119 11.423-8.315 18.893-8.315 14.15 0 25.621 11.471 25.621 25.621 0 6.68-2.557 12.763-6.745 17.324zM430.080 824.32c144.213 0 261.12-116.907 261.12-261.12s-116.907-261.12-261.12-261.12c-144.213 0-261.12 116.907-261.12 261.12 0.175 144.142 116.978 260.945 261.103 261.12zM614.4 563.2c0-11.311-9.169-20.48-20.48-20.48h-143.36v-143.36c0-11.311-9.169-20.48-20.48-20.48s-20.48 9.169-20.48 20.48v143.36h-143.36c-11.311 0-20.48 9.169-20.48 20.48s9.169 20.48 20.48 20.48h143.36v143.36c0 11.311 9.169 20.48 20.48 20.48s20.48-9.169 20.48-20.48v-143.36h143.36c11.311 0 20.48-9.169 20.48-20.48z" />
<glyph unicode="&#xe90b;" glyph-name="common-012-filter" d="M787.661 755.405c-19.349 12.259-41.751 22.124-65.608 28.401-60.74 16.167-128.558 25.238-198.496 25.238-4.064 0-8.12-0.031-12.169-0.092-2.836 0.061-6.905 0.092-10.982 0.092-69.925 0-137.731-9.072-202.305-26.102-20.012-5.421-42.413-15.285-62.752-28.121-25.123-17.030-30.55-35.667-30.55-48.262v-20.48c0-17.51 13.107-46.387 26.214-65.946l200.294-300.442c10.987-18.246 17.977-40.032 19.236-63.341l0.015-123.232c0-11.311 9.169-20.48 20.48-20.48 0.024 0 0.052 0 0.080 0 3.329 0 6.473 0.795 9.252 2.204l81.803 40.906c6.734 3.448 11.264 10.339 11.264 18.289 0 0.014 0 0.028 0 0.043v81.918c1.286 23.672 8.314 45.458 19.702 64.315l199.946 299.82c12.902 19.558 26.112 48.435 26.112 65.946v20.48c0 12.595-5.53 31.232-31.539 48.845v0zM314.88 745.165c55.302 14.576 118.791 22.946 184.236 22.946 4.53 0 9.051-0.040 13.563-0.12 2.757 0.066 6.811 0.098 10.872 0.098 65.931 0 129.874-8.512 190.789-24.498 51.1-14.913 63.9-32.219 63.9-37.031s-12.698-22.118-69.12-38.195c-55.758-14.82-119.773-23.33-185.775-23.33-3.989 0-7.971 0.031-11.945 0.093-2.846-0.064-6.913-0.097-10.987-0.097-65.918 0-129.849 8.512-190.751 24.498-51.204 14.913-63.902 32.219-63.902 37.031s12.698 22.118 69.12 38.195zM558.592 342.835c-15.302-24.782-24.85-54.572-26.101-86.492l-0.011-69.668-40.96-20.48v89.805c-1.35 32.133-10.926 61.771-26.659 87.197l-199.44 299.056c10.24-4.511 22.933-9.049 35.97-12.769 61.292-16.337 129.107-25.408 199.040-25.408 4.068 0 8.129 0.031 12.182 0.092 2.839-0.062 6.913-0.092 10.993-0.092 69.92 0 137.722 9.072 202.292 26.102 9.76 3.036 22.452 7.574 34.743 12.866l-202.049-300.617z" />
<glyph unicode="&#xe90c;" glyph-name="common-013-minimize" d="M716.8 522.24h-81.92c-33.932 0-61.44 27.508-61.44 61.44v81.92c0 11.311 9.169 20.48 20.48 20.48s20.48-9.169 20.48-20.48v-81.92c0-11.311 9.169-20.48 20.48-20.48h81.92c11.311 0 20.48-9.169 20.48-20.48s-9.169-20.48-20.48-20.48zM450.56 583.68v81.92c0 11.311-9.169 20.48-20.48 20.48s-20.48-9.169-20.48-20.48v-81.92c0-11.311-9.169-20.48-20.48-20.48h-81.92c-11.311 0-20.48-9.169-20.48-20.48s9.169-20.48 20.48-20.48h81.92c33.932 0 61.44 27.508 61.44 61.44zM614.4 256v81.92c0 11.311 9.169 20.48 20.48 20.48h81.92c11.311 0 20.48 9.169 20.48 20.48s-9.169 20.48-20.48 20.48h-81.92c-33.932 0-61.44-27.508-61.44-61.44v-81.92c0-11.311 9.169-20.48 20.48-20.48s20.48 9.169 20.48 20.48zM450.56 256v81.92c0 33.932-27.508 61.44-61.44 61.44h-81.92c-11.311 0-20.48-9.169-20.48-20.48s9.169-20.48 20.48-20.48h81.92c11.311 0 20.48-9.169 20.48-20.48v-81.92c0-11.311 9.169-20.48 20.48-20.48s20.48 9.169 20.48 20.48z" />
<glyph unicode="&#xe90d;" glyph-name="common-014-fullscreen" d="M880.64 604.16c-11.311 0-20.48 9.169-20.48 20.48v81.92c0 11.311-9.169 20.48-20.48 20.48h-81.92c-11.311 0-20.48 9.169-20.48 20.48s9.169 20.48 20.48 20.48h81.92c33.932 0 61.44-27.508 61.44-61.44v-81.92c0-11.311-9.169-20.48-20.48-20.48zM163.84 624.64v81.92c0 11.311 9.169 20.48 20.48 20.48h81.92c11.311 0 20.48 9.169 20.48 20.48s-9.169 20.48-20.48 20.48h-81.92c-33.932 0-61.44-27.508-61.44-61.44v-81.92c0-11.311 9.169-20.48 20.48-20.48s20.48 9.169 20.48 20.48zM286.72 174.080c0 11.311-9.169 20.48-20.48 20.48h-81.92c-11.311 0-20.48 9.169-20.48 20.48v81.92c0 11.311-9.169 20.48-20.48 20.48s-20.48-9.169-20.48-20.48v-81.92c0-33.932 27.508-61.44 61.44-61.44h81.92c11.311 0 20.48 9.169 20.48 20.48zM901.12 215.040v81.92c0 11.311-9.169 20.48-20.48 20.48s-20.48-9.169-20.48-20.48v-81.92c0-11.311-9.169-20.48-20.48-20.48h-81.92c-11.311 0-20.48-9.169-20.48-20.48s9.169-20.48 20.48-20.48h81.92c33.932 0 61.44 27.508 61.44 61.44z" />
<glyph unicode="&#xe90e;" glyph-name="common-015-document" d="M833.638 659.661l-184.32 184.32c-3.7 3.671-8.796 5.939-14.422 5.939-0.006 0-0.011 0-0.017 0h-389.119c-33.932 0-61.44-27.508-61.44-61.44v-655.36c0-33.932 27.508-61.44 61.44-61.44h532.48c33.932 0 61.44 27.508 61.44 61.44v512c0 0.005 0 0.011 0 0.016 0 5.677-2.31 10.814-6.041 14.524zM790.221 645.12h-134.861c-11.311 0-20.48 9.169-20.48 20.48v134.861zM798.72 133.12c0-11.311-9.169-20.48-20.48-20.48h-532.48c-11.311 0-20.48 9.169-20.48 20.48v655.36c0 11.311 9.169 20.48 20.48 20.48h348.16v-143.36c0-33.932 27.508-61.44 61.44-61.44h143.36v-471.040z" />
<glyph unicode="&#xe90f;" glyph-name="common-016-document-text" d="M833.638 659.661l-184.32 184.32c-3.7 3.671-8.796 5.939-14.422 5.939-0.006 0-0.011 0-0.017 0h-389.119c-33.932 0-61.44-27.508-61.44-61.44v-655.36c0-33.932 27.508-61.44 61.44-61.44h532.48c33.932 0 61.44 27.508 61.44 61.44v512c0 0.005 0 0.011 0 0.016 0 5.677-2.31 10.814-6.041 14.524zM790.221 645.12h-134.861c-11.311 0-20.48 9.169-20.48 20.48v134.861zM798.72 133.12c0-11.311-9.169-20.48-20.48-20.48h-532.48c-11.311 0-20.48 9.169-20.48 20.48v655.36c0 11.311 9.169 20.48 20.48 20.48h348.16v-143.36c0-33.932 27.508-61.44 61.44-61.44h143.36v-471.040zM522.24 604.16h-194.56c-11.311 0-20.48 9.169-20.48 20.48s9.169 20.48 20.48 20.48h194.56c11.311 0 20.48-9.169 20.48-20.48s-9.169-20.48-20.48-20.48zM696.32 467.661h-368.64c-11.311 0-20.48 9.169-20.48 20.48s9.169 20.48 20.48 20.48h368.64c11.311 0 20.48-9.169 20.48-20.48s-9.169-20.48-20.48-20.48zM696.32 331.162h-368.64c-11.311 0-20.48 9.169-20.48 20.48s9.169 20.48 20.48 20.48h368.64c11.339 0 20.531-9.192 20.531-20.531s-9.192-20.531-20.531-20.531zM614.4 194.56h-286.72c-11.311 0-20.48 9.169-20.48 20.48s9.169 20.48 20.48 20.48h286.72c11.311 0 20.48-9.169 20.48-20.48s-9.169-20.48-20.48-20.48z" />
<glyph unicode="&#xe910;" glyph-name="common-017-document-bullets" d="M833.638 659.661l-184.32 184.32c-3.7 3.671-8.796 5.939-14.422 5.939-0.006 0-0.011 0-0.017 0h-389.119c-33.932 0-61.44-27.508-61.44-61.44v-655.36c0-33.932 27.508-61.44 61.44-61.44h532.48c33.932 0 61.44 27.508 61.44 61.44v512c0 0.005 0 0.011 0 0.016 0 5.677-2.31 10.814-6.041 14.524zM790.221 645.12h-134.861c-11.311 0-20.48 9.169-20.48 20.48v134.861zM798.72 133.12c0-11.311-9.169-20.48-20.48-20.48h-532.48c-11.311 0-20.48 9.169-20.48 20.48v655.36c0 11.311 9.169 20.48 20.48 20.48h348.16v-143.36c0-33.932 27.508-61.44 61.44-61.44h143.36v-471.040zM283.853 589.21c0-32.801 26.591-59.392 59.392-59.392s59.392 26.591 59.392 59.392c0 32.801-26.591 59.392-59.392 59.392s-59.392-26.591-59.392-59.392zM283.853 422.605c0-32.801 26.591-59.392 59.392-59.392s59.392 26.591 59.392 59.392c0 32.801-26.591 59.392-59.392 59.392s-59.392-26.591-59.392-59.392zM283.853 247.194c0-32.801 26.591-59.392 59.392-59.392s59.392 26.591 59.392 59.392c0 32.801-26.591 59.392-59.392 59.392s-59.392-26.591-59.392-59.392zM556.237 563.2h-92.16c-11.311 0-20.48 9.169-20.48 20.48s9.169 20.48 20.48 20.48h92.16c11.311 0 20.48-9.169 20.48-20.48s-9.169-20.48-20.48-20.48zM720.077 402.125h-256c-11.311 0-20.48 9.169-20.48 20.48s9.169 20.48 20.48 20.48h256c11.311 0 20.48-9.169 20.48-20.48s-9.169-20.48-20.48-20.48zM720.077 226.714h-256c-11.311 0-20.48 9.169-20.48 20.48s9.169 20.48 20.48 20.48h256c11.311 0 20.48-9.169 20.48-20.48s-9.169-20.48-20.48-20.48z" />
<glyph unicode="&#xe911;" glyph-name="common-018-duplicate" d="M798.72 706.56h-102.4v102.4c0 33.932-27.508 61.44-61.44 61.44h-307.2c-0.035 0-0.077 0-0.118 0-5.626 0-10.722-2.269-14.424-5.941l-143.359-143.359c-3.671-3.7-5.94-8.796-5.94-14.422 0-0.042 0-0.083 0-0.125v-430.074c0-33.932 27.508-61.44 61.44-61.44h102.4v-102.4c0-33.932 27.508-61.44 61.44-61.44h409.6c33.932 0 61.44 27.508 61.44 61.44v532.48c0 33.932-27.508 61.44-61.44 61.44zM327.68 820.941v-93.901c0-11.311-9.169-20.48-20.48-20.48h-93.901zM225.28 256c-11.311 0-20.48 9.169-20.48 20.48v389.12h102.4c33.932 0 61.44 27.508 61.44 61.44v102.4h266.24c11.311 0 20.48-9.169 20.48-20.48v-102.4h-163.84c-0.035 0-0.077 0-0.118 0-5.626 0-10.722-2.269-14.424-5.941l-143.359-143.359c-3.671-3.7-5.94-8.796-5.94-14.422 0-0.042 0-0.083 0-0.125v-286.714h-102.4zM491.52 657.101v-93.901c0-11.311-9.169-20.48-20.48-20.48h-93.901zM819.2 112.64c0-11.311-9.169-20.48-20.48-20.48h-409.6c-11.311 0-20.48 9.169-20.48 20.48v389.12h102.4c33.932 0 61.44 27.508 61.44 61.44v102.4h266.24c11.311 0 20.48-9.169 20.48-20.48v-532.48z" />
<glyph unicode="&#xe912;" glyph-name="common-019-folder-closed" d="M860.16 686.080h-307.2c-4.699 0.668-8.691 3.246-11.228 6.909l-22.666 45.315c-9.546 17.259-27.341 28.929-47.922 29.693l-286.823 0.003c-20.645-0.805-38.394-12.465-47.775-29.403l-22.881-45.553c-6.642-14.038-10.739-30.44-11.26-47.74l-0.004-430.263c0-33.932 27.508-61.44 61.44-61.44h696.32c33.932 0 61.44 27.508 61.44 61.44v409.6c0 33.932-27.508 61.44-61.44 61.44zM880.64 215.040c0-11.311-9.169-20.48-20.48-20.48h-696.32c-11.311 0-20.48 9.169-20.48 20.48v430.080c0.547 10.851 3.056 20.981 7.177 30.234l22.416 44.723c2.612 3.721 6.636 6.298 11.278 6.953l286.808 0.010c4.69-0.694 8.674-3.264 11.229-6.91l22.666-45.314c9.546-17.259 27.341-28.929 47.922-29.693l307.303-0.003c11.311 0 20.48-9.169 20.48-20.48v-409.6z" />
<glyph unicode="&#xe913;" glyph-name="common-020-folder-open" d="M955.392 596.173c-7.81 11.008-20.471 18.13-34.801 18.227h-39.951v10.24c0 33.932-27.508 61.44-61.44 61.44h-307.2c-4.699 0.668-8.691 3.246-11.228 6.909l-22.666 45.315c-9.546 17.259-27.341 28.929-47.922 29.693l-286.823 0.003c-20.645-0.805-38.394-12.465-47.775-29.403l-22.881-45.553c-6.642-14.038-10.739-30.44-11.26-47.74l-0.004-430.263c0-33.932 27.508-61.44 61.44-61.44h655.36c25.669 3.754 46.751 20.352 56.749 42.949l124.908 359.688c1.744 4.6 2.753 9.918 2.753 15.473 0 9.098-2.709 17.562-7.363 24.632zM109.363 674.714l22.63 45.261c2.595 3.761 6.622 6.374 11.277 7.055l286.81 0.011c4.694-0.681 8.682-3.256 11.229-6.909l22.666-45.315c9.546-17.259 27.341-28.929 47.922-29.693l307.303-0.003c11.311 0 20.48-9.169 20.48-20.48v-10.24h-562.381c-26.886-1.727-49.494-18.404-59.728-41.74l-115.171-291.88v364.339c0.561 10.817 3.068 20.91 7.177 30.131zM921.6 570.266l-124.518-359.219c-3.607-8.529-11.162-14.764-20.311-16.46l-653.891-0.026c-3.449 0.020-6.69 0.889-9.531 2.409l141.524 359.473c4.3 8.837 12.467 15.214 22.239 16.971l643.463 0.028c0.593-0.336 1.1-0.745 1.531-1.223-0.134-0.758-0.311-1.411-0.536-2.043z" />
<glyph unicode="&#xe914;" glyph-name="common-021-envelope-close" d="M856.883 716.8h-689.766c-35.742 0-64.717-28.975-64.717-64.717v-387.994c0-35.742 28.975-64.717 64.717-64.717 0 0 0 0 0 0h689.766c35.742 0 64.717 28.975 64.717 64.717 0 0 0 0 0 0v387.994c0 35.742-28.975 64.717-64.717 64.717zM856.883 673.69c0.568 0.052 1.228 0.082 1.894 0.082s1.327-0.030 1.979-0.088l-324.795-216.877c-6.882-3.933-15.125-6.252-23.91-6.252s-17.028 2.319-24.151 6.379l-324.060 216.45c0.568 0.053 1.227 0.083 1.894 0.083s1.327-0.030 1.978-0.089l689.17 0.006zM856.883 242.483h-689.766c-11.933 0-21.606 9.674-21.606 21.606v369.357l318.669-212.48c13.628-8.401 30.143-13.378 47.821-13.378s34.193 4.977 48.22 13.606l318.269 212.251v-369.357c0-11.933-9.674-21.606-21.606-21.606z" />
<glyph unicode="&#xe915;" glyph-name="common-022-envelope-open" d="M874.496 634.88l-314.47 192.41c-13.843 7.819-30.396 12.426-48.026 12.426s-34.183-4.607-48.522-12.683l-313.974-192.153c-27.438-18.542-45.617-48.984-47.097-83.75l-0.007-388.109c0-35.742 28.975-64.717 64.717-64.717 0 0 0 0 0 0h689.766c35.742 0 64.717 28.975 64.717 64.717 0 0 0 0 0 0v388.096c-1.58 34.922-19.781 65.28-46.829 83.523l-0.378 0.24zM172.032 598.118l314.368 192.41c7.446 3.871 16.258 6.142 25.6 6.142s18.154-2.271 25.914-6.29l314.156-192.057c7.583-5.103 13.752-11.73 18.18-19.479l-334.289-223.004c-6.882-3.933-15.125-6.252-23.91-6.252s-17.028 2.319-24.151 6.379l-334.3 222.594c4.419 8.035 10.461 14.666 17.727 19.639l0.193 0.125zM856.883 141.517h-689.766c-11.933 0-21.606 9.674-21.606 21.606v369.357l318.669-212.48c13.628-8.401 30.143-13.378 47.821-13.378s34.193 4.977 48.22 13.606l318.269 212.251v-369.459c-0.058-11.889-9.709-21.504-21.606-21.504 0 0 0 0 0 0z" />
<glyph unicode="&#xe916;" glyph-name="common-023-inbox" d="M903.373 404.070l-110.387 252.723c-14.266 28.659-42.77 48.322-76.001 49.76l-409.785 0.006c-33.415-1.445-61.919-21.108-75.953-49.25l-110.722-253.239c-10.551-25.563-17.116-55.192-18.115-86.227l-0.010-164.243c0-33.932 27.508-61.44 61.44-61.44h696.32c33.932 0 61.44 27.508 61.44 61.44v163.84c-1.007 31.445-7.61 61.074-18.84 88.308zM268.493 640.205c7.623 14.255 21.885 24.087 38.543 25.385l409.765 0.010c16.757-1.341 30.962-11.119 38.479-25.039l110.615-252.875c1.229-2.765 2.458-6.042 3.686-9.523-2.813 0.456-6.055 0.717-9.358 0.717-0.022 0-0.044 0-0.066 0h-245.757c-11.311 0-20.48-9.169-20.48-20.48v-20.48c0-45.243-36.677-81.92-81.92-81.92s-81.92 36.677-81.92 81.92v20.48c0 11.311-9.169 20.48-20.48 20.48h-245.76c-0.019 0-0.041 0-0.063 0-3.303 0-6.545-0.261-9.707-0.763 1.578 3.527 2.704 6.804 4.036 9.569zM880.64 153.6c0-11.311-9.169-20.48-20.48-20.48h-696.32c-11.311 0-20.48 9.169-20.48 20.48v163.84c0 11.311 9.169 20.48 20.48 20.48h225.28c0-67.865 55.015-122.88 122.88-122.88s122.88 55.015 122.88 122.88h225.28c11.311 0 20.48-9.169 20.48-20.48v-163.84z" />
<glyph unicode="&#xe917;" glyph-name="common-024-inbox-2" d="M627.405 552.96c4.429-4.429 7.168-10.547 7.168-17.306s-2.739-12.877-7.168-17.306l-97.997-97.997c-4.445-4.435-10.581-7.177-17.357-7.177s-12.912 2.742-17.357 7.178l-97.996 97.996c-4.429 4.429-7.168 10.547-7.168 17.306 0 13.517 10.957 24.474 24.474 24.474 6.758 0 12.877-2.739 17.306-7.168l56.218-56.218v353.178c0 13.545 10.98 24.525 24.525 24.525s24.525-10.98 24.525-24.525v-352.666l56.013 55.706c4.44 4.404 10.555 7.126 17.306 7.126s12.866-2.722 17.307-7.128l-0.002 0.002zM921.6 276.48v-163.84c0-33.932-27.508-61.44-61.44-61.44h-696.32c-33.932 0-61.44 27.508-61.44 61.44v163.84c0.996 31.472 7.562 61.138 18.739 88.427l109.875 250.926c14.266 28.659 42.77 48.322 76.001 49.76l123.065 0.006v-40.96h-122.88c-16.763-1.322-30.976-11.106-38.48-25.038l-110.615-252.875c-1.229-2.765-2.458-6.042-3.686-9.523 2.813 0.456 6.055 0.717 9.358 0.717 0.022 0 0.044 0 0.066 0h245.757c11.311 0 20.48-9.169 20.48-20.48v-20.48c0-45.243 36.677-81.92 81.92-81.92s81.92 36.677 81.92 81.92v20.48c0 11.311 9.169 20.48 20.48 20.48h245.76c0.019 0 0.041 0 0.063 0 3.303 0 6.545-0.261 9.707-0.763-1.578 3.527-2.807 6.702-4.036 9.569l-110.49 252.621c-7.643 14.174-21.848 23.951-38.436 25.282l-133.289 0.011v40.96h133.12c33.415-1.445 61.919-21.108 75.953-49.25l110.722-253.239c10.585-25.563 17.153-55.197 18.115-86.244zM880.64 276.48c0 11.311-9.169 20.48-20.48 20.48h-225.28c0-67.865-55.015-122.88-122.88-122.88s-122.88 55.015-122.88 122.88h-225.28c-11.311 0-20.48-9.169-20.48-20.48v-163.84c0-11.311 9.169-20.48 20.48-20.48h696.32c11.311 0 20.48 9.169 20.48 20.48v163.84z" />
<glyph unicode="&#xe918;" glyph-name="common-025-outbox" d="M396.595 734.618c-4.429 4.429-7.168 10.547-7.168 17.306s2.739 12.877 7.168 17.306l97.997 97.997c4.445 4.435 10.581 7.177 17.357 7.177s12.912-2.742 17.357-7.178l97.996-97.996c4.429-4.429 7.168-10.547 7.168-17.306 0-13.517-10.957-24.474-24.474-24.474-6.758 0-12.877 2.739-17.306 7.168l-56.115 56.115v-352.666c0-13.545-10.98-24.525-24.525-24.525s-24.525 10.98-24.525 24.525v352.666l-56.115-56.218c-4.44-4.404-10.555-7.126-17.306-7.126s-12.866 2.722-17.307 7.128l0.002-0.002zM921.6 276.48v-163.84c0-33.932-27.508-61.44-61.44-61.44h-696.32c-33.932 0-61.44 27.508-61.44 61.44v163.84c0.996 31.472 7.562 61.138 18.739 88.427l109.875 250.926c14.266 28.659 42.77 48.322 76.001 49.76l123.065 0.006v-40.96h-122.88c-16.763-1.322-30.976-11.106-38.48-25.038l-110.615-252.875c-1.229-2.765-2.458-6.042-3.686-9.523 2.813 0.456 6.055 0.717 9.358 0.717 0.022 0 0.044 0 0.066 0h245.757c11.311 0 20.48-9.169 20.48-20.48v-20.48c0-45.243 36.677-81.92 81.92-81.92s81.92 36.677 81.92 81.92v20.48c0 11.311 9.169 20.48 20.48 20.48h245.76c0.019 0 0.041 0 0.063 0 3.303 0 6.545-0.261 9.707-0.763-1.578 3.527-2.807 6.702-4.036 9.569l-110.49 252.621c-7.643 14.174-21.848 23.951-38.436 25.282l-133.289 0.011v40.96h133.12c33.415-1.445 61.919-21.108 75.953-49.25l110.722-253.239c10.585-25.563 17.153-55.197 18.115-86.244zM880.64 276.48c0 11.311-9.169 20.48-20.48 20.48h-225.28c0-67.865-55.015-122.88-122.88-122.88s-122.88 55.015-122.88 122.88h-225.28c-11.311 0-20.48-9.169-20.48-20.48v-163.84c0-11.311 9.169-20.48 20.48-20.48h696.32c11.311 0 20.48 9.169 20.48 20.48v163.84z" />
<glyph unicode="&#xe919;" glyph-name="common-026-clipboard" d="M743.014 768h-99.43l-48.128 72.499c-4.592 42.385-40.18 75.086-83.405 75.086s-78.813-32.701-83.372-74.714l-48.161-72.052h-99.43c-0.493 0.016-1.072 0.025-1.653 0.025-29.917 0-54.17-24.253-54.17-54.17 0-0.441 0.005-0.881 0.016-1.319l-0.001-590.476c0-31.232 24.474-51.2 55.808-51.2h461.926c31.232 0 55.706 20.48 55.706 51.2v590.541c0.001 0.128 0.002 0.28 0.002 0.431 0 29.917-24.253 54.17-54.17 54.17-0.541 0-1.080-0.008-1.617-0.024zM329.216 694.272c-1.833-2.704-2.927-6.039-2.927-9.63 0-2.958 0.742-5.743 2.050-8.178 2.872-5.469 8.529-9.241 15.085-9.43l168.576-1.434 168.55 1.331c9.486 0.238 17.086 7.984 17.086 17.505 0 3.629-1.104 6.999-2.994 9.795l-21.874 32.809h63.795c11.719-0.058 21.197-9.572 21.197-21.299 0-0.036 0-0.072 0-0.108v-574.458c-0.225-10.345-8.664-18.645-19.042-18.645-0.723 0-1.437 0.040-2.139 0.119l-449.143-0.008c-0.647-0.078-1.395-0.122-2.154-0.122-10.382 0-18.824 8.307-19.042 18.636v574.484c0 0 0 0.001 0 0.001 0 11.748 9.465 21.285 21.186 21.401h63.806zM512 671.437v0zM375.706 701.542l78.746 116.838c4.753 3.075 7.86 8.34 7.885 14.332 0 27.348 22.167 49.514 49.51 49.514s49.51-22.167 49.51-49.51c0.025-5.996 3.132-11.261 7.818-14.295l0.067-0.041 78.746-116.838-135.987-0.819zM512 805.171c-15.1 0-27.341 12.241-27.341 27.341s12.241 27.341 27.341 27.341c15.1 0 27.341-12.241 27.341-27.341-0.058-15.077-12.264-27.283-27.335-27.341z" />
<glyph unicode="&#xe91a;" glyph-name="common-027-clipboard-text" d="M743.014 768h-99.43l-48.128 72.499c-4.592 42.385-40.18 75.086-83.405 75.086s-78.813-32.701-83.372-74.714l-48.161-72.052h-99.43c-0.493 0.016-1.072 0.025-1.653 0.025-29.917 0-54.17-24.253-54.17-54.17 0-0.441 0.005-0.881 0.016-1.319l-0.001-590.476c0-31.232 24.474-51.2 55.808-51.2h461.926c31.232 0 55.706 20.48 55.706 51.2v590.541c0.001 0.128 0.002 0.28 0.002 0.431 0 29.917-24.253 54.17-54.17 54.17-0.541 0-1.080-0.008-1.617-0.024zM329.216 694.272c-1.833-2.704-2.927-6.039-2.927-9.63 0-2.958 0.742-5.743 2.050-8.178 2.872-5.469 8.529-9.241 15.085-9.43l168.576-1.434 168.55 1.331c9.486 0.238 17.086 7.984 17.086 17.505 0 3.629-1.104 6.999-2.994 9.795l-21.874 32.809h63.795c11.719-0.058 21.197-9.572 21.197-21.299 0-0.036 0-0.072 0-0.108v-574.458c-0.225-10.345-8.664-18.645-19.042-18.645-0.723 0-1.437 0.040-2.139 0.119l-449.143-0.008c-0.647-0.078-1.395-0.122-2.154-0.122-10.382 0-18.824 8.307-19.042 18.636v574.484c0 0 0 0.001 0 0.001 0 11.748 9.465 21.285 21.186 21.401h63.806zM512 671.437v0zM375.706 701.542l78.746 116.838c4.753 3.075 7.86 8.34 7.885 14.332 0 27.348 22.167 49.514 49.51 49.514s49.51-22.167 49.51-49.51c0.025-5.996 3.132-11.261 7.818-14.295l0.067-0.041 78.746-116.838-135.987-0.819zM512 805.171c-15.1 0-27.341 12.241-27.341 27.341s12.241 27.341 27.341 27.341c15.1 0 27.341-12.241 27.341-27.341-0.058-15.077-12.264-27.283-27.335-27.341zM552.96 550.195c0-9.784-7.931-17.715-17.715-17.715 0 0 0 0 0 0h-169.37c-9.784 0-17.715 7.931-17.715 17.715v5.53c0 9.784 7.931 17.715 17.715 17.715h169.37c9.784 0 17.715-7.931 17.715-17.715v-5.53zM348.16 415.642v4.198c-0.057 0.548-0.089 1.185-0.089 1.829 0 9.462 6.975 17.295 16.063 18.638l300.749 0.012c11.053-0.971 19.843-9.515 21.185-20.366l0.011-4.517c-2.078-9.28-10.246-16.111-20.009-16.111-0.418 0-0.833 0.013-1.245 0.037l-300.59-0.003c-0.256-0.015-0.554-0.024-0.855-0.024-8.427 0-15.258 6.831-15.258 15.258 0 0.369 0.013 0.734 0.039 1.097zM686.080 283.955c0-9.784-7.931-17.715-17.715-17.715 0 0 0 0 0 0h-302.49c-9.784 0-17.715 7.931-17.715 17.715 0 0 0 0 0 0v5.53c0 9.784 7.931 17.715 17.715 17.715 0 0 0 0 0 0h302.49c0 0 0 0 0 0 9.784 0 17.715-7.931 17.715-17.715 0 0 0 0 0 0v-5.53z" />
<glyph unicode="&#xe91b;" glyph-name="common-028-printer" d="M860.16 706.56h-61.44v102.4c0 33.932-27.508 61.44-61.44 61.44h-450.56c-33.932 0-61.44-27.508-61.44-61.44v-102.4h-61.44c-33.932 0-61.44-27.508-61.44-61.44v-368.64c0-33.932 27.508-61.44 61.44-61.44h61.44v-102.4c0-33.932 27.508-61.44 61.44-61.44h450.56c33.932 0 61.44 27.508 61.44 61.44v102.4h61.44c33.932 0 61.44 27.508 61.44 61.44v368.64c0 33.932-27.508 61.44-61.44 61.44zM266.24 808.96c0 11.311 9.169 20.48 20.48 20.48h450.56c11.311 0 20.48-9.169 20.48-20.48v-102.4h-491.52v102.4zM737.28 92.16h-450.56c-11.311 0-20.48 9.169-20.48 20.48v266.24h491.52v-266.24c0-11.311-9.169-20.48-20.48-20.48zM880.64 276.48c0-11.311-9.169-20.48-20.48-20.48h-61.44v122.88h20.48c11.311 0 20.48 9.169 20.48 20.48s-9.169 20.48-20.48 20.48h-614.4c-11.311 0-20.48-9.169-20.48-20.48s9.169-20.48 20.48-20.48h20.48v-122.88h-61.44c-11.311 0-20.48 9.169-20.48 20.48v368.64c0 11.311 9.169 20.48 20.48 20.48h696.32c11.311 0 20.48-9.169 20.48-20.48v-368.64zM696.32 266.24h-368.64c-11.311 0-20.48 9.169-20.48 20.48s9.169 20.48 20.48 20.48h368.64c11.311 0 20.48-9.169 20.48-20.48s-9.169-20.48-20.48-20.48zM696.32 163.84h-368.64c-11.311 0-20.48 9.169-20.48 20.48s9.169 20.48 20.48 20.48h368.64c11.311 0 20.48-9.169 20.48-20.48s-9.169-20.48-20.48-20.48zM778.24 501.76c-33.932 0-61.44 27.508-61.44 61.44s27.508 61.44 61.44 61.44c33.932 0 61.44-27.508 61.44-61.44s-27.508-61.44-61.44-61.44zM778.24 593.92c-16.966 0-30.72-13.754-30.72-30.72s13.754-30.72 30.72-30.72c16.966 0 30.72 13.754 30.72 30.72s-13.754 30.72-30.72 30.72z" />
<glyph unicode="&#xe91c;" glyph-name="common-029-download" d="M901.12 174.080v81.92c0 11.311-9.169 20.48-20.48 20.48s-20.48-9.169-20.48-20.48v-81.92c0-11.311-9.169-20.48-20.48-20.48h-655.36c-11.311 0-20.48 9.169-20.48 20.48v81.92c0 11.311-9.169 20.48-20.48 20.48s-20.48-9.169-20.48-20.48v-81.92c0-33.932 27.508-61.44 61.44-61.44h655.36c33.932 0 61.44 27.508 61.44 61.44zM348.16 409.6l146.637-146.432c4.424-4.398 10.522-7.117 17.254-7.117s12.831 2.719 17.256 7.118l146.533 146.431c4.416 4.416 7.147 10.516 7.147 17.254 0 13.477-10.925 24.401-24.401 24.401-6.738 0-12.839-2.731-17.254-7.147l-104.96-104.858v404.378c0 0 0 0 0 0 0 13.46-10.911 24.371-24.371 24.371s-24.371-10.911-24.371-24.371c0 0 0 0 0 0v-404.378l-104.653 104.653c-4.435 4.499-10.596 7.286-17.408 7.286-13.497 0-24.438-10.941-24.438-24.438 0-6.685 2.684-12.743 7.033-17.155z" />
<glyph unicode="&#xe91d;" glyph-name="common-030-bell" d="M811.008 251.904c-44.953 33.722-73.729 86.895-73.729 146.79 0 0.234 0 0.468 0.001 0.702v122.844c0 0.012 0 0.026 0 0.041 0 102.54-68.507 189.078-162.248 216.343l-1.592 29.376c0 33.932-27.508 61.44-61.44 61.44s-61.44-27.508-61.44-61.44v-28.979c-95.333-27.662-163.84-114.2-163.84-216.74 0-0.014 0-0.029 0-0.043v-122.878c0.001-0.198 0.001-0.432 0.001-0.666 0-59.895-28.776-113.068-73.256-146.45-5.469-4.116-8.665-10.047-8.665-16.724 0-11.311 9.169-20.48 20.48-20.48h186.368c-1.294-6.153-2.039-13.227-2.048-20.473 0.059-56.516 45.882-102.304 102.4-102.304 56.554 0 102.4 45.846 102.4 102.4 0 7.213-0.746 14.251-2.164 21.043l186.484-0.665c11.311 0 20.48 9.169 20.48 20.48 0 6.677-3.195 12.608-8.14 16.347l-0.052 0.037zM491.52 768c0 11.311 9.169 20.48 20.48 20.48s20.48-9.169 20.48-20.48v-21.402c-6.758 0.922-13.517 0.922-20.48 0.922s-13.722 0-20.48-0.922v21.402zM573.44 194.56c-0.052-33.893-27.54-61.348-61.44-61.348-33.932 0-61.44 27.508-61.44 61.44 0 7.307 1.276 14.316 3.616 20.817l115.782-0.428c2.206-6.072 3.482-13.082 3.482-20.389 0-0.032 0-0.064 0-0.096zM276.48 256c9.92 11.954 18.866 25.381 26.334 39.702 15.896 30.663 24.87 65.467 24.87 102.366 0 0.454-0.001 0.908-0.004 1.362v122.81c0 101.797 82.523 184.32 184.32 184.32s184.32-82.523 184.32-184.32v-122.88c-0.001-0.196-0.001-0.427-0.001-0.659 0-54.374 19.334-104.232 51.502-143.076l-471.341 0.374z" />
<glyph unicode="&#xe91e;" glyph-name="common-031-undo" d="M880.64 460.8c0.001-0.243 0.001-0.531 0.001-0.819 0-173.189-140.369-313.593-313.544-313.651-0.006 0-0.006 0-0.006 0-12.498 0-22.63 10.132-22.63 22.63 0 0.036 0 0.072 0 0.108 0.173 12.586 10.421 22.727 23.038 22.727 0.001 0 0.001 0 0.002 0 1.127-0.017 2.457-0.027 3.789-0.027 148.115 0 268.186 120.071 268.186 268.186s-120.071 268.186-268.186 268.186c-148.105 0-268.17-120.056-268.186-268.157v-36.046l68.096 70.246c3.747 3.994 9.058 6.483 14.95 6.483s11.204-2.489 14.94-6.472c4.125-4.125 6.671-9.809 6.671-16.088s-2.545-11.963-6.661-16.077l-109.158-109.056c-4.2-4.009-9.901-6.476-16.179-6.476s-11.979 2.467-16.188 6.484l-109.252 109.15c-4.27 4.138-6.921 9.926-6.921 16.333 0 6.152 2.444 11.734 6.414 15.827 4.246 3.971 9.976 6.413 16.276 6.413s12.030-2.442 16.295-6.431l69.516-70.336v36.045c0.35 174.169 141.592 315.232 315.796 315.29 83.154 0 160.569-37.683 219.654-88.883v0l1.126-3.072c56.93-56.649 92.161-135.058 92.161-221.696 0-0.288 0-0.576-0.001-0.863z" />
<glyph unicode="&#xe91f;" glyph-name="common-032-sync" d="M915.661 516.301c3.711-3.707 6.007-8.83 6.007-14.49s-2.296-10.783-6.006-14.489l-81.92-81.92c-3.712-3.742-8.856-6.058-14.541-6.058s-10.829 2.316-14.539 6.057l-81.921 81.921c-3.708 3.708-6.002 8.831-6.002 14.49 0 11.317 9.174 20.491 20.491 20.491 5.659 0 10.781-2.294 14.49-6.002l47.002-46.899c-4.536 154.809-131.116 278.579-286.604 278.579-109.616 0-204.865-61.513-253.111-151.903-4.262-8.089-11.058-12.466-18.876-12.466-11.321 0-20.498 9.177-20.498 20.498 0 3.503 0.878 6.8 2.427 9.684 55.955 104.917 164.791 175.187 290.038 175.187 178.196 0 323.17-142.24 327.577-319.374l47.010 46.695c3.707 3.711 8.83 6.007 14.49 6.007s10.783-2.296 14.489-6.006v0zM793.293 335.565c-2.771 1.493-6.065 2.37-9.563 2.37-7.793 0-14.57-4.353-18.031-10.761-49.082-91.939-144.277-153.37-253.819-153.37-155.423 0-281.963 123.666-286.589 277.968l46.787-46.371c3.708-3.708 8.831-6.002 14.49-6.002 11.317 0 20.491 9.174 20.491 20.491 0 5.659-2.294 10.781-6.002 14.49l-81.92 81.92c-3.707 3.711-8.83 6.007-14.49 6.007s-10.783-2.296-14.489-6.006l-81.92-81.92c-3.708-3.708-6.002-8.831-6.002-14.49 0-11.317 9.174-20.491 20.491-20.491 5.659 0 10.781 2.294 14.49 6.002l47.104 47.002c4.565-177.423 149.479-319.509 327.578-319.509 125.098 0 233.823 70.102 289.035 173.165 2.351 4.526 3.229 7.82 3.229 11.318 0 7.793-4.353 14.57-10.761 18.031l-0.109 0.054z" />
<glyph unicode="&#xe920;" glyph-name="common-033-refresh" d="M874.701 516.301c3.711-3.707 6.007-8.83 6.007-14.49s-2.296-10.783-6.006-14.489l-81.92-81.92c-3.712-3.742-8.856-6.058-14.541-6.058s-10.829 2.316-14.539 6.057l-81.921 81.921c-3.708 3.708-6.002 8.831-6.002 14.49 0 11.317 9.174 20.491 20.491 20.491 5.659 0 10.781-2.294 14.49-6.002l47.002-46.899c-4.936 154.485-131.353 277.842-286.583 277.842-158.351 0-286.72-128.369-286.72-286.72s128.369-286.72 286.72-286.72c109.502 0 204.667 61.385 252.961 151.622 4.316 7.873 10.996 12.082 18.66 12.082 11.311 0 20.48-9.169 20.48-20.48 0-3.4-0.829-6.607-2.295-9.429-56.021-104.691-164.739-174.782-289.828-174.782-180.973 0-327.68 146.707-327.68 327.68s146.707 327.68 327.68 327.68c177.913 0 322.71-141.789 327.555-318.532l47.011 46.656c3.707 3.711 8.83 6.007 14.49 6.007s10.783-2.296 14.489-6.006v0z" />
<glyph unicode="&#xe921;" glyph-name="common-034-cloud" d="M788.48 184.32h-460.8c-0.010 0-0.022 0-0.034 0-152.696 0-276.48 123.784-276.48 276.48s123.784 276.48 276.48 276.48c76.815 0 146.313-31.326 196.416-81.899 4.475 9.763 9.467 18.169 15.241 25.96 25.19 33.824 65.504 55.741 110.937 55.741 76.278 0 138.127-61.779 138.24-138.031 0-0.069 0-0.139 0-0.208 0-16.755-3.003-32.809-8.5-47.652l8.807 0.95c101.797 0 184.32-82.523 184.32-184.32s-82.523-184.32-184.32-184.32v0zM327.68 691.2c-122.88 0-230.4-105.882-230.4-232.96 0-0.004 0-0.009 0-0.014 0-127.76 102.845-231.499 230.263-232.945l460.937-0.001c77.253 0 139.878 62.626 139.878 139.878s-62.626 139.878-139.878 139.878c-0.557 0.008-1.214 0.013-1.873 0.013-16.243 0-31.828-2.818-46.293-7.992-1.258-0.471-3.815-0.916-6.475-0.916-12.894 0-23.347 10.453-23.347 23.347 0 6.179 2.4 11.797 6.319 15.973 15.712 16.487 25.386 38.873 25.386 63.519 0 50.899-41.261 92.16-92.16 92.16-48.752 0-88.663-37.855-91.942-85.775-0.738-12.426-10.76-21.998-23.017-21.998-7.78 0-14.66 3.856-18.831 9.762-5.522 7.73-10.897 14.405-16.619 20.763-42.673 46.681-103.745 76.306-171.751 77.406l-0.197 0.003z" />
<glyph unicode="&#xe922;" glyph-name="common-035-flag" d="M828.826 821.35c-2.918 5.111-8.335 8.501-14.544 8.501-1.306 0-2.577-0.15-3.796-0.434l-452.086 0.022v22.528c0 11.311-9.169 20.48-20.48 20.48s-20.48-9.169-20.48-20.48v-770.048h-104.038c-11.311 0-20.48-9.169-20.48-20.48s9.169-20.48 20.48-20.48h272.077c11.311 0 20.48 9.169 20.48 20.48s-9.169 20.48-20.48 20.48h-127.078v378.88h439.296c8.579 1.468 15.464 7.467 18.179 15.401 1.003 2.561 1.556 5.339 1.556 8.247 0 5.805-2.206 11.095-5.825 15.077l-144.982 145.594 158.003 156.467c3.507 3.145 5.703 7.69 5.703 12.749 0 2.541-0.554 4.953-1.549 7.121zM358.4 788.48h404.685l-138.445-133.12c-3.474-2.663-5.701-6.802-5.734-11.463-0.001-0.061-0.001-0.127-0.001-0.193 0-5.829 2.174-11.15 5.756-15.197l125.419-126.747h-391.68v286.72z" />
<glyph unicode="&#xe923;" glyph-name="common-036-star-outline" d="M921.6 558.285c-3.379 10.24-15.77 35.635-58.368 35.635h-209.715c-11.363 0.789-20.956 7.647-25.623 17.327l-64.694 199.454c-13.107 40.96-39.936 44.544-51.2 44.544s-37.683-4.506-51.2-44.954l-64.512-198.758c-4.737-9.933-14.381-16.842-25.711-17.608l-210.219-0.005c-42.496 0-54.989-25.293-58.368-35.635s-7.475-37.786 26.931-62.771l170.086-123.904c6.695-5.973 10.89-14.625 10.89-24.257 0-2.288-0.237-4.52-0.687-6.674l-65.294-199.367c-7.373-22.733-5.837-41.677 4.71-56.218 8.362-11.414 21.717-18.742 36.783-18.742 0.173 0 0.345 0.001 0.517 0.003 15.346 0.772 29.243 6.522 40.226 15.654l169.975 122.79c4.577 2.644 10.068 4.204 15.923 4.204s11.346-1.56 16.079-4.287l169.828-122.797c10.94-8.911 24.881-14.523 40.107-15.151 0.282-0.006 0.454-0.007 0.627-0.007 15.066 0 28.421 7.328 36.694 18.614 10.329 14.668 12.275 33.51 4.799 56.243l-65.024 199.475c-0.432 1.977-0.679 4.247-0.679 6.575 0 9.603 4.21 18.223 10.885 24.115l170.019 124.139c34.099 24.576 30.003 52.019 26.214 62.362zM675.84 328.602l64.922-199.885c1.614-3.237 2.559-7.051 2.559-11.086 0-3.114-0.563-6.097-1.592-8.852-2.81-3.819-10.9-1.566-20.423 5.602l-169.574 123.494c-11.178 7.55-24.954 12.053-39.782 12.053s-28.605-4.502-40.037-12.215l-169.729-123.333c-10.24-7.168-17.92-9.318-20.48-5.427-0.972 2.58-1.535 5.563-1.535 8.677 0 4.035 0.945 7.849 2.625 11.233l64.855 199.738c1.702 5.82 2.681 12.505 2.681 19.419 0 22.742-10.591 43.010-27.11 56.142l-170.438 123.607c-8.909 6.451-13.517 13.824-12.186 17.818s8.704 7.373 19.763 7.373h210.125c29.298 1.029 54.038 19.491 64.24 45.287l65.091 199.858c3.379 10.24 7.987 16.486 12.186 16.486s8.806-6.349 12.186-16.896l64.922-198.861c10.341-26.324 35.089-44.828 64.284-45.872l210.25-0.004c11.059 0 18.432-3.379 19.763-7.475s-3.277-10.752-12.186-17.306l-170.086-123.699c-16.648-13.398-27.211-33.772-27.211-56.614 0-6.893 0.962-13.562 2.759-19.878z" />
<glyph unicode="&#xe924;" glyph-name="common-037-star-filled" d="M895.078 495.616l-170.086-124.109c-6.71-5.922-10.919-14.542-10.919-24.145 0-2.328 0.247-4.599 0.718-6.787l65.293-199.264c7.373-22.733 5.837-41.574-4.71-56.115-8.362-11.414-21.717-18.742-36.783-18.742-0.173 0-0.345 0.001-0.517 0.003-15.334 0.749-29.23 6.462-40.23 15.555l-169.869 122.788c-4.577 2.644-10.068 4.204-15.923 4.204s-11.346-1.56-16.079-4.287l-169.93-122.797c-10.921-8.861-24.825-14.437-40.008-15.049-0.279-0.006-0.451-0.007-0.624-0.007-15.066 0-28.421 7.328-36.694 18.614-10.329 14.668-12.275 33.612-4.799 56.345l64.922 199.987c0.413 1.943 0.65 4.175 0.65 6.463 0 9.632-4.195 18.284-10.858 24.229l-169.606 123.113c-34.406 24.986-30.72 52.326-26.931 62.771s15.77 35.533 58.266 35.533h210.125c11.383 0.809 20.982 7.707 25.623 17.427l64.694 199.046c13.107 40.96 39.936 44.954 51.2 44.954s37.683-4.096 51.2-44.544l64.512-199.27c4.737-9.933 14.381-16.842 25.711-17.608l210.219-0.005c42.496 0 54.989-25.19 58.368-35.635s7.475-37.683-26.931-62.669z" />
<glyph unicode="&#xe925;" glyph-name="common-038-thumbs-up" d="M898.458 512c-19.968 35.533-46.899 43.827-75.162 49.664-12.638 1.586-27.263 2.491-42.1 2.491-9.184 0-18.287-0.347-27.297-1.028-5.057-0.32-12.368-0.544-19.731-0.544-10.403 0-20.701 0.447-30.877 1.323-5.426 3.682-10.434 9.89-12.553 17.317-3.839 13.312-3.019 37.785 23.093 80.486 8.854 17.423 14.041 37.993 14.041 59.774 0 1.955-0.042 3.899-0.124 5.834 0.040 0.894 0.057 2.272 0.057 3.653 0 27.097-6.645 52.642-18.393 75.095-13.415 25.888-40.9 43.878-72.587 43.878-0.683 0-1.365-0.008-2.044-0.025 0.089 0.002 0.074 0.002 0.060 0.002-8.030 0-14.981-4.622-18.337-11.35-15.823-32.375-48.489-103.235-80.13-171.741-27.955-60.621-54.374-117.76-63.181-135.373-1.946-3.789-3.584-7.27-5.12-10.24-7.885-16.589-11.776-24.064-21.299-29.184-11.059-6.042-30.72-9.216-61.44-10.24-8.821 23.769-31.288 40.408-57.646 40.448h-163.845c-33.932 0-61.44-27.508-61.44-61.44v-327.68c0-33.932 27.508-61.44 61.44-61.44h163.84c26.563 0.031 49.175 16.915 57.721 40.532 35.932-0.106 70.378-4.817 103.339-13.239 53.176-17.076 117.843-27.297 184.897-27.297 0.775 0 1.549 0.001 2.323 0.004h1.211c51.2 0 88.883 0 119.398 8.397 33.69 9.114 57.754 27.75 80.589 62.054 13.722 20.992 44.442 99.226 44.442 195.789 0 79.974 0 133.12-23.142 174.080zM327.68 112.64h-163.84c-11.311 0-20.48 9.169-20.48 20.48v327.68c0 11.311 9.169 20.48 20.48 20.48h163.84c11.311 0 20.48-9.169 20.48-20.48v-327.68c0-11.311-9.169-20.48-20.48-20.48zM843.162 164.966c-34.714-52.326-64.922-52.326-165.99-52.326h-1.331c-1.231-0.009-2.686-0.014-4.142-0.014-62.197 0-122.181 9.476-178.586 27.062-27.982 7.597-65.154 13.036-103.454 13.903l-0.537 286.73c36.659 1.229 60.314 5.837 77.21 14.95 21.606 11.674 29.901 29.082 38.81 47.616l4.813 10.24c9.114 18.227 35.635 75.674 63.693 136.602 26.522 57.446 56.115 121.754 73.523 157.901 12.004-3.307 21.668-11.465 26.923-22.177 8.092-16.093 12.766-34.782 12.766-54.563 0-1.353-0.022-2.702-0.065-4.045 0.067-1.125 0.103-2.674 0.103-4.231 0-14.239-2.975-27.783-8.336-40.044-26.987-43.9-36.203-82.095-27.192-112.611 5.606-19.111 18.671-34.482 35.746-43.031 11.358-5.404 28.869-5.507 69.010-4.483 6.849 0.444 14.851 0.698 22.911 0.698 12.666 0 25.186-0.625 37.53-1.846 24.858-5.405 35.508-10.115 46.157-29.571 17.92-31.642 17.92-80.282 17.92-153.805 0-87.962-27.955-158.515-37.478-172.954v0z" />
<glyph unicode="&#xe926;" glyph-name="common-039-thumbs-down" d="M921.6 583.68c0 96.563-30.72 174.797-44.442 195.686-22.835 34.304-47.002 52.838-80.589 62.054-30.515 8.499-67.891 8.499-119.398 8.499h-1.331c-0.951 0.005-2.076 0.008-3.202 0.008-66.687 0-131.013-10.109-191.529-28.878-25.295-6.629-59.721-11.446-95.167-12.084-9.086 24.040-31.698 40.923-58.257 40.954h-163.844c-33.932 0-61.44-27.508-61.44-61.44v-327.68c0-33.932 27.508-61.44 61.44-61.44h163.84c26.563 0.031 49.175 16.915 57.721 40.532 30.855-0.391 50.311-3.668 61.575-9.812 9.523-5.12 13.414-12.698 21.299-29.184 1.536-3.379 3.174-6.861 5.12-10.24 8.806-17.613 35.226-74.854 63.181-135.373 31.642-68.506 64.307-139.366 80.077-171.622 3.251-7.007 10.158-11.815 18.206-11.98 0.6-0.015 1.282-0.023 1.965-0.023 31.687 0 59.172 17.991 72.798 44.315 11.538 22.016 18.183 47.561 18.183 74.659 0 1.382-0.017 2.759-0.052 4.133 0.068 1.341 0.104 3.154 0.104 4.974 0 21.85-5.22 42.48-14.481 60.712-25.76 41.937-26.579 66.41-22.79 79.518 2.169 7.631 7.177 13.839 13.78 17.537 9.444 0.94 20.252 1.433 31.176 1.433 6.879 0 13.713-0.196 20.495-0.581 6.249-0.473 14.637-0.767 23.093-0.767 15.605 0 30.975 1.001 46.052 2.943 26.479 5.752 53.41 13.944 73.378 49.476 23.040 40.55 23.040 93.696 23.040 173.67zM348.16 788.48v-327.68c0-11.311-9.169-20.48-20.48-20.48h-163.84c-11.311 0-20.48 9.169-20.48 20.48v327.68c0 11.311 9.169 20.48 20.48 20.48h163.84c11.311 0 20.48-9.169 20.48-20.48zM843.162 756.531c9.626-14.438 37.478-85.094 37.478-172.851 0-73.421 0-121.958-17.818-153.6-10.24-19.046-21.299-24.166-47.718-29.696-10.783-1.096-23.303-1.722-35.969-1.722-8.060 0-16.062 0.253-23.996 0.752-39.158 0.969-56.566 0.867-67.523-4.355-17.476-8.731-30.541-24.102-36.023-42.721-9.135-31.212-0.124-69.202 27.319-113.746 5.058-11.564 8.001-25.041 8.001-39.204 0-1.698-0.042-3.386-0.126-5.064 0.040-0.795 0.058-2.008 0.058-3.224 0-19.853-4.708-38.606-13.068-55.204-5.044-10.255-14.708-18.413-26.415-21.65-17.602 35.872-47.298 100.18-73.922 157.626-28.16 60.826-54.682 118.374-63.693 136.602l-4.813 10.24c-8.806 18.432-17.101 35.84-38.81 47.616-16.794 9.114-40.96 13.722-77.21 14.95v286.72c38.768 0.729 75.964 6.027 111.518 15.377 49.263 15.967 109.697 25.591 172.379 25.591 1.064 0 2.128-0.003 3.191-0.008l1.167 0.001c100.762 0 131.174 0 165.888-52.224v0z" />
<glyph unicode="&#xe927;" glyph-name="common-040-key" d="M878.899 225.28l-280.576 280.576 0.819 1.638c15.706 31.867 24.893 69.372 24.893 109.023 0 138.727-112.46 251.187-251.187 251.187s-251.187-112.46-251.187-251.187c0-138.727 112.46-251.187 251.187-251.187 39.42 0 76.719 9.081 109.92 25.264l0.15 0.164 78.336-78.336-34.099-34.099c-12.225-12.225-19.787-29.114-19.787-47.77 0-37.31 30.246-67.556 67.556-67.556 18.655 0 35.544 7.562 47.77 19.787l34.099 34.099 13.824-13.824-34.099-34.099c-12.225-12.225-19.787-29.114-19.787-47.77 0-37.31 30.246-67.556 67.556-67.556 18.655 0 35.544 7.562 47.77 19.787l34.099 34.099 1.843-1.434c13.438-10.033 30.376-16.063 48.722-16.063 45.243 0 81.92 36.677 81.92 81.92 0 20.422-7.472 39.098-19.832 53.444zM848.179 140.8c-6.839-6.843-16.288-11.075-26.726-11.075s-19.888 4.233-26.726 11.075l-28.57 28.57-65.126-65.126c-4.357-4.943-10.702-8.044-17.772-8.044-13.064 0-23.654 10.59-23.654 23.654 0 7.070 3.102 13.416 8.019 17.75l65.152 65.149-75.878 75.878-65.126-65.126c-4.33-4.141-10.213-6.69-16.691-6.69s-12.361 2.549-16.7 6.699c-4.251 4.269-6.884 10.168-6.884 16.683s2.634 12.414 6.894 16.692l65.126 65.126-133.12 133.12-14.541-8.397c-29.63-17.3-65.23-27.513-103.215-27.513-114.522 0-207.36 92.838-207.36 207.36s92.838 207.36 207.36 207.36c114.522 0 207.36-92.838 207.36-207.36 0-38.083-10.266-73.768-28.182-104.439l-7.866-13.558 303.923-304.026c6.843-6.839 11.075-16.288 11.075-26.726s-4.233-19.888-11.075-26.726zM385.638 721.101c-15.011 15.111-35.802 24.464-58.778 24.464s-43.767-9.353-58.773-24.46c-15.010-15.121-24.283-35.946-24.283-58.936s9.273-43.814 24.284-58.936c15.017-15.081 35.805-24.416 58.773-24.416s43.755 9.335 58.775 24.418c15.008 15.12 24.281 35.944 24.281 58.934s-9.273 43.814-24.284 58.936zM354.918 634.266c-7.071-7.127-16.87-11.539-27.699-11.539s-20.628 4.412-27.697 11.537c-7.11 7.178-11.501 17.055-11.501 27.958s4.391 20.779 11.502 27.958c7.068 7.124 16.867 11.536 27.696 11.536s20.628-4.412 27.697-11.537c6.988-7.156 11.298-16.95 11.298-27.751 0-11.005-4.474-20.965-11.703-28.161z" />
<glyph unicode="&#xe928;" glyph-name="common-041-lock" d="M751.514 557.773h-23.962v71.68c0 119.074-96.529 215.603-215.603 215.603s-215.603-96.529-215.603-215.603v-71.68h-23.859c-39.588 0-71.68-32.092-71.68-71.68v-383.693c0-39.588 32.092-71.68 71.68-71.68h479.027c39.588 0 71.68 32.092 71.68 71.68v383.488c0 0.061 0 0.133 0 0.205 0 39.588-32.092 71.68-71.68 71.68 0 0 0 0 0 0zM344.269 629.453c2.316 90.835 76.502 163.587 167.68 163.587s165.364-72.752 167.676-163.373l0.004-71.894h-335.36v71.68zM775.475 102.4c0-13.234-10.728-23.962-23.962-23.962 0 0 0 0 0 0h-479.027c-13.234 0-23.962 10.728-23.962 23.962 0 0 0 0 0 0v383.488c0 13.234 10.728 23.962 23.962 23.962 0 0 0 0 0 0h479.027c0 0 0 0 0 0 13.234 0 23.962-10.728 23.962-23.962 0 0 0 0 0 0v-383.488z" />
<glyph unicode="&#xe929;" glyph-name="common-042-unlock" d="M720.282 863.846c-115.032-0.175-208.223-93.438-208.282-208.481v-115.718h-347.136c-38.32-0.058-69.369-31.107-69.427-69.422v-370.079c0.058-38.32 31.107-69.369 69.422-69.427h462.854c38.32 0.058 69.369 31.107 69.427 69.422v370.284c-0.058 38.32-31.107 69.369-69.422 69.427h-69.433v115.507c0 0 0 0 0 0 0 89.468 72.528 161.997 161.997 161.997s161.997-72.528 161.997-161.997c0 0 0 0 0 0v-46.080c0-12.781 10.361-23.142 23.142-23.142s23.142 10.361 23.142 23.142v46.080c-0.058 115.048-93.249 208.312-208.265 208.486zM628.122 493.568c12.781 0 23.142-10.361 23.142-23.142v-370.278c0-12.781-10.361-23.142-23.142-23.142 0 0 0 0 0 0h-463.258c-12.781 0-23.142 10.361-23.142 23.142 0 0 0 0 0 0v370.278c0 12.781 10.361 23.142 23.142 23.142 0 0 0 0 0 0h462.848z" />
<glyph unicode="&#xe92a;" glyph-name="common-043-calendar" d="M860.16 788.48h-102.4v20.48c0 11.311-9.169 20.48-20.48 20.48s-20.48-9.169-20.48-20.48v-20.48h-409.6v20.48c0 11.311-9.169 20.48-20.48 20.48s-20.48-9.169-20.48-20.48v-20.48h-102.4c-33.932 0-61.44-27.508-61.44-61.44v-573.44c0-33.932 27.508-61.44 61.44-61.44h696.32c33.932 0 61.44 27.508 61.44 61.44v573.44c0 33.932-27.508 61.44-61.44 61.44zM163.84 747.52h102.4v-61.44c0-11.311 9.169-20.48 20.48-20.48s20.48 9.169 20.48 20.48v61.44h409.6v-61.44c0-11.311 9.169-20.48 20.48-20.48s20.48 9.169 20.48 20.48v61.44h102.4c11.311 0 20.48-9.169 20.48-20.48v-102.4h-737.28v102.4c0 11.311 9.169 20.48 20.48 20.48zM860.16 133.12h-696.32c-11.311 0-20.48 9.169-20.48 20.48v430.080h737.28v-430.080c0-11.311-9.169-20.48-20.48-20.48zM491.52 215.040h-122.88c-11.311 0-20.48 9.169-20.48 20.48s9.169 20.48 20.48 20.48h102.4v81.92h-61.44c-11.311 0-20.48 9.169-20.48 20.48s9.169 20.48 20.48 20.48h61.44v81.92h-102.4c-11.311 0-20.48 9.169-20.48 20.48s9.169 20.48 20.48 20.48h122.88c11.311 0 20.48-9.169 20.48-20.48v-245.76c0-11.311-9.169-20.48-20.48-20.48zM655.36 215.040c-11.311 0-20.48 9.169-20.48 20.48v245.76c0 11.311 9.169 20.48 20.48 20.48s20.48-9.169 20.48-20.48v-245.76c0-11.311-9.169-20.48-20.48-20.48z" />
<glyph unicode="&#xe92b;" glyph-name="common-044-clock" d="M787.149 735.949c-70.36 70.077-167.41 113.401-274.579 113.401-214.905 0-389.12-174.215-389.12-389.12 0-107.169 43.324-204.219 113.414-274.591 70.347-70.064 167.397-113.388 274.566-113.388 214.905 0 389.12 174.215 389.12 389.12 0 107.169-43.324 204.219-113.414 274.591zM512 112.64c-192.283 0-348.16 155.877-348.16 348.16s155.877 348.16 348.16 348.16c192.283 0 348.16-155.877 348.16-348.16s-155.877-348.16-348.16-348.16zM742.605 593.92c1.723-2.936 2.74-6.466 2.74-10.233 0-7.53-4.064-14.112-10.119-17.67l-212.986-122.932h-0.717l-1.946-0.922-2.048-0.614h-13.21l-1.229 0.512-1.331 1.024-1.126 0.614-168.141 117.76c-5.322 3.751-8.757 9.871-8.757 16.794 0 11.312 9.17 20.482 20.482 20.482 4.389 0 8.456-1.381 11.789-3.731l157.017-109.934 201.523 116.326c2.936 1.723 6.466 2.74 10.233 2.74 7.53 0 14.112-4.064 17.67-10.119l0.052-0.096zM512 153.6c-11.311 0-20.48 9.169-20.48 20.48v40.96c0 11.311 9.169 20.48 20.48 20.48s20.48-9.169 20.48-20.48v-40.96c0-11.311-9.169-20.48-20.48-20.48zM512 686.080c-11.311 0-20.48 9.169-20.48 20.48v40.96c0 11.311 9.169 20.48 20.48 20.48s20.48-9.169 20.48-20.48v-40.96c0-11.311-9.169-20.48-20.48-20.48zM204.8 460.8c0 11.311 9.169 20.48 20.48 20.48h40.96c11.311 0 20.48-9.169 20.48-20.48s-9.169-20.48-20.48-20.48h-40.96c-11.311 0-20.48 9.169-20.48 20.48zM737.28 460.8c0 11.311 9.169 20.48 20.48 20.48h40.96c11.311 0 20.48-9.169 20.48-20.48s-9.169-20.48-20.48-20.48h-40.96c-11.311 0-20.48 9.169-20.48 20.48z" />
<glyph unicode="&#xe92c;" glyph-name="common-045-bubble-text" d="M143.36 112.64c-11.221 0.118-20.271 9.242-20.271 20.479 0 7.455 3.984 13.98 9.939 17.562 49.499 29.993 87.244 74.918 107.443 128.451-74.787 59.402-117.59 139.171-117.59 222.627 0.066 44.581 11.712 86.428 32.090 122.713 21.086 37.468 49.346 69.944 82.979 95.771 74.064 57.382 171.036 88.716 274.051 88.716s200.090-31.334 273.203-88.269c34.435-26.354 62.733-58.835 83.666-96.015 20.598-36.558 32.257-78.401 32.257-122.967s-11.658-86.409-32.092-122.646c-21.134-37.48-49.426-69.954-83.083-95.785-73.862-57.384-170.937-88.718-273.952-88.718-0.284-0.001-0.621-0.001-0.957-0.001-43.558 0-85.771 5.755-125.922 16.545-21.747-17.795-51.104-35.081-81.525-50.578-65.721-32.526-118.047-47.886-160.236-47.886v0zM512 768c-192 0-348.16-119.398-348.16-266.24 0-74.342 40.96-145.92 112.64-196.301 5.341-3.748 8.788-9.879 8.788-16.815 0-1.886-0.255-3.713-0.732-5.448-13.078-44.336-35.388-82.64-64.836-114.198 58.812 22.309 109.485 49.351 155.992 81.933 1.021 0.801 5.070 2.17 9.439 2.17 2.005 0 3.942-0.288 5.773-0.825 36.057-10.624 77.648-16.757 120.672-16.757 0.149 0 0.299 0 0.448 0 191.977 0 348.137 119.398 348.137 266.24s-156.16 266.24-348.16 266.24zM696.32 624.64c0 11.311-9.169 20.48-20.48 20.48h-327.68c-11.311 0-20.48-9.169-20.48-20.48s9.169-20.48 20.48-20.48h327.68c11.311 0 20.48 9.169 20.48 20.48zM696.32 501.76c0 11.311-9.169 20.48-20.48 20.48h-327.68c-11.311 0-20.48-9.169-20.48-20.48s9.169-20.48 20.48-20.48h327.68c11.311 0 20.48 9.169 20.48 20.48zM614.4 378.88c0 11.311-9.169 20.48-20.48 20.48h-245.76c-11.311 0-20.48-9.169-20.48-20.48s9.169-20.48 20.48-20.48h245.76c11.311 0 20.48 9.169 20.48 20.48z" />
<glyph unicode="&#xe92d;" glyph-name="common-046-hand" d="M798.72 706.56c-15.090-0.028-29.217-4.131-41.344-11.268l0.384 52.228c-0.047 45.207-36.706 81.837-81.92 81.837-16.99 0-32.772-5.172-45.857-14.027-11.235 32.389-41.487 55.017-77.023 55.017s-65.788-22.628-77.133-54.261c-12.975 8.1-28.757 13.272-45.747 13.272-45.214 0-81.873-36.629-81.92-81.832v-301.982l-55.296 95.539c-10.384 18.959-27.716 33.020-48.488 38.879-6.657 1.885-13.657 2.891-20.892 2.891-14.626 0-28.292-4.11-39.906-11.239-24.25-15.544-40.311-42.708-40.311-73.623 0-14.147 3.363-27.508 9.333-39.327 1-1.958 27.112-55.513 108.725-218.636 38.4-76.8 80.589-131.789 125.338-163.226 35.021-24.269 59.29-25.6 63.898-25.6h204.8c36.569 0.059 70.164 12.745 96.669 33.929 29.311 23.977 53.116 54.14 69.477 88.528 38.654 78.042 59.134 183.821 59.134 307.623v143.36c0 45.243-36.677 81.92-81.92 81.92v0zM839.68 481.28c0-117.453-18.739-216.883-54.17-287.744-23.245-46.285-64.614-101.376-130.15-101.376h-204.8c-17.346 3.345-32.541 10.92-44.979 21.611-25.472 19.349-65.306 60.309-107.597 144.891-82.944 165.99-108.544 218.317-108.851 218.829v0c-3.061 6.014-4.854 13.114-4.854 20.634 0 15.956 8.073 30.025 20.358 38.347 5.452 3.354 11.858 5.279 18.714 5.279 3.383 0 6.656-0.469 9.759-1.345 10.247-2.928 18.759-9.904 23.709-19.085l0.102-0.208 64.41-111.514c13.107-23.859 27.75-33.894 43.725-29.901s24.064 20.48 24.064 47.411v320.41c0 22.622 18.338 40.96 40.96 40.96s40.96-18.338 40.96-40.96v-266.24c0-11.311 9.169-20.48 20.48-20.48s20.48 9.169 20.48 20.48v307.2c0 22.622 18.338 40.96 40.96 40.96s40.96-18.338 40.96-40.96v-307.2c0-11.311 9.169-20.48 20.48-20.48s20.48 9.169 20.48 20.48v266.24c0 22.622 18.338 40.96 40.96 40.96s40.96-18.338 40.96-40.96v-307.2c0-11.311 9.169-20.48 20.48-20.48s20.48 9.169 20.48 20.48v184.32c0 22.622 18.338 40.96 40.96 40.96s40.96-18.338 40.96-40.96v-143.36z" />
<glyph unicode="&#xe92e;" glyph-name="common-047-eye" d="M916.378 474.522c-36.339 38.508-75.967 73.131-118.691 103.705-39.506 28.839-81.662 53.141-126.403 72.619-49.868 22.040-103.025 34.309-158.942 35.231-56.599-0.919-109.757-13.189-157.951-34.605-46.418-20.13-88.572-44.43-127.499-72.883-43.294-30.953-82.92-65.575-118.903-103.675-3.64-4.007-5.643-8.826-5.643-14.113s2.003-10.106 5.292-13.739c36.311-38.512 75.941-73.137 118.68-103.692 39.502-28.833 81.658-53.134 126.397-72.613 49.867-22.061 103.028-34.333 158.953-35.232 56.589 0.902 109.75 13.173 157.936 34.604 46.42 20.101 88.576 44.403 127.49 72.875 43.309 30.961 82.935 65.584 118.917 103.684 3.64 4.007 5.643 8.826 5.643 14.113s-2.003 10.106-5.292 13.739l0.016-0.018zM617.472 627.2c35.823-30.254 58.419-75.198 58.419-125.419 0-90.486-73.354-163.84-163.84-163.84s-163.84 73.354-163.84 163.84c0 50.221 22.596 95.165 58.176 125.219 31.609 11.156 67.777 17.682 105.408 18.118 38.074-0.424 74.278-6.952 108.074-18.639zM771.072 374.579c-63.078-44.749-159.027-98.099-259.072-98.099s-195.994 53.35-258.765 98.099c-38.023 27.191-71.461 55.495-102.446 86.267 30.993 30.658 64.43 58.961 99.988 84.496 24.122 17.403 48.899 32.95 74.701 46.84-10.25-25.069-18.329-56.757-18.329-90.332 0-113.108 91.692-204.8 204.8-204.8s204.8 91.692 204.8 204.8c0 33.575-8.079 65.263-22.4 93.225 29.882-16.802 54.659-32.348 78.275-49.403 36.062-25.84 69.501-54.145 100.484-84.918-30.987-30.674-64.424-58.978-99.992-84.502z" />
<glyph unicode="&#xe92f;" glyph-name="common-048-play-circle" d="M512 71.68c-214.905 0.001-389.119 174.215-389.119 389.12 0 107.452 43.554 204.732 113.97 275.149 70.36 70.077 167.41 113.401 274.579 113.401 214.905 0 389.12-174.215 389.12-389.12 0-107.169-43.324-204.219-113.414-274.591-70.015-70.389-166.957-113.96-274.076-113.96-0.373 0-0.745 0.001-1.118 0.002zM512 808.96c-192.283 0-348.16-155.877-348.16-348.16s155.877-348.16 348.16-348.16c192.283 0 348.16 155.877 348.16 348.16s-155.877 348.16-348.16 348.16zM389.12 235.52c-0.095-0.002-0.208-0.003-0.321-0.003-3.641 0-7.060 0.95-10.022 2.616-6.062 3.554-10.138 10.143-10.138 17.684 0 0.064 0 0.129 0.001 0.193v409.59c0 0.012 0 0.027 0 0.041 0 11.311 9.169 20.48 20.48 20.48 4.022 0 7.774-1.16 10.938-3.163l327.596-204.75c5.809-3.681 9.609-10.075 9.609-17.357s-3.8-13.676-9.526-17.307l-327.764-204.85c-3.076-1.974-6.825-3.155-10.849-3.174zM409.6 628.634v-335.667l268.595 167.834z" />
<glyph unicode="&#xe930;" glyph-name="common-049-pause-circle" d="M512 71.68c-214.905 0.001-389.119 174.215-389.119 389.12 0 107.452 43.554 204.732 113.97 275.149 70.36 70.077 167.41 113.401 274.579 113.401 214.905 0 389.12-174.215 389.12-389.12 0-107.169-43.324-204.219-113.414-274.591-70.015-70.389-166.957-113.96-274.076-113.96-0.373 0-0.745 0.001-1.118 0.002zM512 808.96c-192.283 0-348.16-155.877-348.16-348.16s155.877-348.16 348.16-348.16c192.283 0 348.16 155.877 348.16 348.16s-155.877 348.16-348.16 348.16zM430.080 276.48h-40.96c-33.932 0-61.44 27.508-61.44 61.44v245.76c0 33.932 27.508 61.44 61.44 61.44h40.96c33.932 0 61.44-27.508 61.44-61.44v-245.76c0-33.932-27.508-61.44-61.44-61.44zM389.12 604.16c-11.311 0-20.48-9.169-20.48-20.48v-245.76c0-11.311 9.169-20.48 20.48-20.48h40.96c11.311 0 20.48 9.169 20.48 20.48v245.76c0 11.311-9.169 20.48-20.48 20.48h-40.96zM634.88 276.48h-40.96c-33.932 0-61.44 27.508-61.44 61.44v245.76c0 33.932 27.508 61.44 61.44 61.44h40.96c33.932 0 61.44-27.508 61.44-61.44v-245.76c0-33.932-27.508-61.44-61.44-61.44zM593.92 604.16c-11.311 0-20.48-9.169-20.48-20.48v-245.76c0-11.311 9.169-20.48 20.48-20.48h40.96c11.311 0 20.48 9.169 20.48 20.48v245.76c0 11.311-9.169 20.48-20.48 20.48h-40.96z" />
<glyph unicode="&#xe931;" glyph-name="common-050-back-circle" d="M512 71.68c-214.905 0.001-389.119 174.215-389.119 389.12 0 107.452 43.554 204.732 113.97 275.149 70.36 70.077 167.41 113.401 274.579 113.401 214.905 0 389.12-174.215 389.12-389.12 0-107.169-43.324-204.219-113.414-274.591-70.015-70.389-166.957-113.96-274.076-113.96-0.373 0-0.745 0.001-1.118 0.002zM512 808.96c-192.283 0-348.16-155.877-348.16-348.16s155.877-348.16 348.16-348.16c192.283 0 348.16 155.877 348.16 348.16s-155.877 348.16-348.16 348.16zM471.040 276.48c-0.005 0-0.011 0-0.016 0-5.677 0-10.814 2.31-14.524 6.041l-163.841 163.841c-3.711 3.707-6.007 8.83-6.007 14.49s2.296 10.783 6.006 14.489l163.84 163.84c3.712 3.742 8.856 6.058 14.541 6.058 11.311 0 20.48-9.169 20.48-20.48 0-0.042 0-0.084 0-0.126v-327.674c0 0 0 0 0 0 0-8.504-5.183-15.797-12.563-18.893-2.397-1.022-5.030-1.587-7.795-1.587-0.043 0-0.086 0-0.129 0zM336.179 460.8l114.381-114.381v228.762zM675.84 276.48c-5.645 0.025-10.748 2.33-14.437 6.041l-163.841 163.841c-3.711 3.707-6.007 8.83-6.007 14.49s2.296 10.783 6.006 14.489l163.84 163.84c3.702 3.68 8.804 5.955 14.438 5.955 11.311 0 20.48-9.169 20.48-20.48 0-0.006 0-0.011 0-0.017v-327.679c0-0.013 0-0.028 0-0.043 0-8.465-5.136-15.731-12.461-18.851-2.435-1.022-5.109-1.587-7.916-1.587-0.036 0-0.072 0-0.108 0zM540.979 460.8l114.381-114.381v228.762z" />
<glyph unicode="&#xe932;" glyph-name="common-051-forward-circle" d="M512 849.92c214.905-0.001 389.119-174.215 389.119-389.12 0-107.452-43.554-204.732-113.97-275.149-70.36-70.077-167.41-113.401-274.579-113.401-214.905 0-389.12 174.215-389.12 389.12 0 107.169 43.324 204.219 113.414 274.591 70.015 70.389 166.957 113.96 274.076 113.96 0.373 0 0.745-0.001 1.118-0.002zM512 112.64c192.283 0 348.16 155.877 348.16 348.16s-155.877 348.16-348.16 348.16c-192.283 0-348.16-155.877-348.16-348.16s155.877-348.16 348.16-348.16zM552.96 645.12c0.005 0 0.011 0 0.016 0 5.677 0 10.814-2.31 14.524-6.041l163.841-163.841c3.711-3.707 6.007-8.83 6.007-14.49s-2.296-10.783-6.006-14.489l-163.84-163.84c-3.712-3.742-8.856-6.058-14.541-6.058-11.311 0-20.48 9.169-20.48 20.48 0 0.042 0 0.084 0 0.126v327.674c0 0 0 0 0 0 0 8.504 5.183 15.797 12.563 18.893 2.397 1.022 5.030 1.587 7.795 1.587 0.043 0 0.086 0 0.129 0zM687.821 460.8l-114.381 114.381v-228.762zM348.16 645.12c5.645-0.025 10.748-2.33 14.437-6.041l163.841-163.841c3.711-3.707 6.007-8.83 6.007-14.49s-2.296-10.783-6.006-14.489l-163.84-163.84c-3.702-3.68-8.804-5.955-14.438-5.955-11.311 0-20.48 9.169-20.48 20.48 0 0.006 0 0.011 0 0.017v327.679c0 0.013 0 0.028 0 0.043 0 8.465 5.136 15.731 12.461 18.851 2.435 1.022 5.109 1.587 7.916 1.587 0.036 0 0.072 0 0.108 0zM483.021 460.8l-114.381 114.381v-228.762z" />
<glyph unicode="&#xe933;" glyph-name="common-052-add-circle" d="M787.149 725.709c-70.417 70.417-167.697 113.97-275.149 113.97-214.905 0-389.12-174.215-389.12-389.12s174.215-389.12 389.12-389.12c214.905 0 389.12 174.215 389.12 389.12 0 0 0 0.001 0 0.001 0.001 0.327 0.002 0.715 0.002 1.102 0 107.106-43.571 204.035-113.955 274.029zM512 102.4c-192.283 0-348.16 155.877-348.16 348.16s155.877 348.16 348.16 348.16c192.283 0 348.16-155.877 348.16-348.16s-155.877-348.16-348.16-348.16zM532.48 430.080h170.598c0.57-0.062 1.232-0.097 1.902-0.097 10.349 0 18.739 8.39 18.739 18.739 0 0.865-0.059 1.715-0.172 2.549-0.291 4.874-3.216 9.098-7.388 11.234-2.293 1.502-4.112 3.386-5.46 5.591-2.024 4.299-6.074 7.256-10.851 7.652l-165.116 1.846 0.614 167.526c-0.077 6.814-2.882 12.959-7.371 17.406l-0.002 0.002c-4.031 4.25-9.677 6.934-15.95 7.065-0.109 0.002-0.209 0.002-0.309 0.002-6.368 0-12.133-2.584-16.303-6.76-4.24-4.243-6.862-10.103-6.862-16.575 0-0.077 0-0.154 0.001-0.23v-166.695h-166.912c-0.040 0-0.087 0-0.135 0-6.55 0-12.477-2.662-16.761-6.963-4.314-4.572-6.965-10.753-6.965-17.552 0-0.058 0-0.115 0.001-0.173 0.21-13.23 10.686-23.956 23.804-24.565l166.967-0.002v-166.195c0.051-6.441 2.749-12.242 7.058-16.376 3.635-4.219 8.974-6.869 14.932-6.869 0.045 0 0.091 0 0.136 0 12.149 0.365 21.865 10.307 21.865 22.518 0 0.58-0.022 1.155-0.065 1.724l0.005 165.198zM649.421 593.92c-0.4-0.066-0.861-0.104-1.331-0.104s-0.931 0.038-1.381 0.11l0.049-0.007c-0.4-0.065-0.861-0.102-1.331-0.102s-0.931 0.037-1.381 0.109c0.847-0.077 1.775-0.118 2.712-0.118s1.865 0.040 2.782 0.119z" />
<glyph unicode="&#xe934;" glyph-name="common-053-info-circle" d="M512 71.68c-214.905 0.001-389.119 174.215-389.119 389.12 0 107.452 43.554 204.732 113.97 275.149 70.36 70.077 167.41 113.401 274.579 113.401 214.905 0 389.12-174.215 389.12-389.12 0-107.169-43.324-204.219-113.414-274.591-70.015-70.389-166.957-113.96-274.076-113.96-0.373 0-0.745 0.001-1.118 0.002zM512 808.96c-192.283 0-348.16-155.877-348.16-348.16s155.877-348.16 348.16-348.16c192.283 0 348.16 155.877 348.16 348.16s-155.877 348.16-348.16 348.16zM506.88 520.499c19.763 0 35.84-10.24 35.84-23.859v-191.181c0-13.21-16.077-23.859-35.84-23.859s-35.84 10.24-35.84 23.859v191.181c0 13.21 16.077 23.859 35.84 23.859zM506.88 640c19.763 0 35.84-10.24 35.84-23.859v-23.859c0-13.21-16.077-23.859-35.84-23.859s-35.84 10.24-35.84 23.859v23.859c0 13.107 16.077 23.859 35.84 23.859z" />
<glyph unicode="&#xe935;" glyph-name="common-054-exclamation-triangle" d="M916.89 191.181l-346.829 600.678c-14.643 25.293-35.226 39.219-58.163 39.219s-43.52-13.926-58.061-39.219l-346.726-600.678c-14.643-25.293-16.384-51.814-4.915-71.68 12.501-19.697 34.196-32.58 58.899-32.58 1.434 0 2.858 0.043 4.271 0.129l693.463-0.009c1.143-0.067 2.479-0.105 3.824-0.105 24.714 0 46.421 12.875 58.779 32.284 11.841 20.045 10.408 46.567-4.543 71.962zM886.17 140.8v1.741c-10.24-7.168-12.493-14.541-26.931-14.541h-694.067c-1.121-0.135-2.418-0.213-3.734-0.213-10.291 0-19.478 4.729-25.505 12.134-4.143 7.228-2.403 18.799 4.868 31.394l346.829 600.883c7.27 12.493 16.077 19.763 24.371 19.763s16.998-6.963 24.371-19.661l345.702-600.576c2.96-6.179 4.689-13.432 4.689-21.088 0-3.518-0.365-6.951-1.059-10.263zM527.36 286.72v-40.96c0-11.311-9.169-20.48-20.48-20.48s-20.48 9.169-20.48 20.48v40.96c0 11.311 9.169 20.48 20.48 20.48s20.48-9.169 20.48-20.48zM527.36 573.44v-204.8c0-11.311-9.169-20.48-20.48-20.48s-20.48 9.169-20.48 20.48v204.8c0 11.311 9.169 20.48 20.48 20.48s20.48-9.169 20.48-20.48z" />
<glyph unicode="&#xe936;" glyph-name="common-055-x" d="M714.445 258.355c-4.646-4.622-11.052-7.479-18.125-7.479s-13.479 2.857-18.126 7.48l-166.194 166.194-166.195-166.195c-4.709-4.48-11.095-7.236-18.125-7.236s-13.415 2.756-18.136 7.247c-4.635 4.625-7.51 11.034-7.51 18.114s2.875 13.49 7.52 18.124l166.196 166.196-166.195 166.093c-4.629 4.586-7.495 10.944-7.495 17.971s2.866 13.386 7.493 17.969c4.701 4.505 11.090 7.277 18.127 7.277s13.425-2.772 18.134-7.284l166.186-167.108 166.195 164.966c3.982 3.22 9.106 5.169 14.686 5.169 1.213 0 2.405-0.092 3.569-0.27l-0.13 0.016c1.024 0.158 2.206 0.248 3.409 0.248 5.589 0 10.723-1.947 14.761-5.199 4.549-4.14 7.422-10.139 7.422-16.809s-2.873-12.67-7.449-16.828l-166.214-166.212 166.195-166.195c4.622-4.646 7.479-11.052 7.479-18.125s-2.857-13.479-7.48-18.126z" />
<glyph unicode="&#xe937;" glyph-name="common-056-x-circle" d="M787.149 735.949c-70.36 70.077-167.41 113.401-274.579 113.401-214.905 0-389.12-174.215-389.12-389.12 0-107.169 43.324-204.219 113.414-274.591 70.347-70.064 167.397-113.388 274.566-113.388 214.905 0 389.12 174.215 389.12 389.12 0 107.169-43.324 204.219-113.414 274.591zM512 112.64c-192.283 0-348.16 155.877-348.16 348.16s155.877 348.16 348.16 348.16c192.283 0 348.16-155.877 348.16-348.16s-155.877-348.16-348.16-348.16zM545.69 465.92l118.067 117.76c4.259 3.348 6.969 8.5 6.969 14.285s-2.71 10.937-6.93 14.255c-2.321 2.053-5.341 3.289-8.65 3.289-1.614 0-3.159-0.294-4.586-0.831-1.049-0.244-2.356-0.401-3.699-0.401s-2.65 0.157-3.903 0.453c-1.201 0.468-2.722 0.753-4.309 0.753-3.295 0-6.304-1.225-8.595-3.245l-118.053-115.188-117.965 119.296c-4.491 4.431-10.663 7.168-17.474 7.168-0.013 0-0.025 0-0.038 0h0.002c-0.105 0.002-0.229 0.003-0.353 0.003-6.162 0-11.749-2.463-15.83-6.458-4.294-4.186-6.959-10.032-6.959-16.5 0-0.030 0-0.060 0-0.089-0.001-0.060-0.001-0.137-0.001-0.214 0-6.472 2.622-12.332 6.862-16.575l117.965-117.862-117.965-117.658c-4.302-4.315-6.962-10.269-6.962-16.845s2.66-12.53 6.963-16.845c4.368-4.183 10.305-6.758 16.844-6.758s12.476 2.575 16.854 6.767l118.058 117.752 118.067-118.067c4.323-4.285 10.275-6.933 16.845-6.933 13.217 0 23.931 10.714 23.931 23.931 0 6.647-2.71 12.66-7.084 16.997zM649.421 604.16c-0.4-0.066-0.861-0.104-1.331-0.104s-0.931 0.038-1.381 0.11l0.049-0.007c-0.4-0.065-0.861-0.102-1.331-0.102s-0.931 0.037-1.381 0.109c0.847-0.077 1.775-0.118 2.712-0.118s1.865 0.040 2.782 0.119z" />
<glyph unicode="&#xe938;" glyph-name="common-057-question-circle" d="M901.12 460.8c-0.001-214.905-174.215-389.119-389.12-389.119-107.452 0-204.732 43.554-275.149 113.97-70.757 70.473-114.541 167.983-114.541 275.719 0 214.905 174.215 389.12 389.12 389.12 107.736 0 205.246-43.784 275.706-114.529 70.414-70.009 113.986-166.925 113.986-274.017 0-0.402-0.001-0.805-0.002-1.207zM860.16 460.8c0 192.283-155.877 348.16-348.16 348.16s-348.16-155.877-348.16-348.16c0-192.283 155.877-348.16 348.16-348.16s348.16 155.877 348.16 348.16zM512 650.24c-59.358-0.058-107.462-48.162-107.52-107.514 0-14.144 11.462-25.606 25.6-25.606s25.6 11.462 25.6 25.6c0 31.105 25.215 56.32 56.32 56.32s56.32-25.215 56.32-56.32c-1.299-31.376-27.051-56.321-58.628-56.321-0.089 0-0.177 0-0.266 0.001-0.077 0.001-0.183 0.002-0.29 0.002-14.611 0-26.604-11.209-27.849-25.497l-0.007-82.025c0-14.138 11.462-25.6 25.6-25.6s25.6 11.462 25.6 25.6v59.392c48.61 10.578 84.48 53.239 84.48 104.278 0 0.060 0 0.119 0 0.179 0.013 0.601 0.020 1.319 0.020 2.040 0 58.078-46.941 105.191-104.953 105.471zM512 322.56c-9.829-0.034-18.742-3.931-25.304-10.251-6.321-6.448-10.23-15.304-10.23-25.073 0-0.109 0-0.219 0.001-0.328 0.045-9.811 3.939-18.72 10.252-25.288 6.417-6.32 15.247-10.23 24.99-10.23 0.139 0 0.277 0.001 0.415 0.002-0.008 0 0.007 0 0.022 0 9.821 0 18.73 3.906 25.258 10.248l-0.009-0.008c6.511 6.474 10.541 15.439 10.541 25.344s-4.030 18.87-10.54 25.342c-6.43 6.334-15.26 10.244-25.003 10.244-0.139 0-0.277-0.001-0.415-0.002z" />
<glyph unicode="&#xe939;" glyph-name="common-058-check" d="M738.406 625.869c-5.632 5.385-13.284 8.699-21.709 8.699s-16.076-3.314-21.721-8.71l-264.897-265-101.171 101.171c-5.558 5.551-13.232 8.984-21.709 8.984-16.957 0-30.705-13.738-30.72-30.692 0.008-8.481 3.45-16.156 9.011-21.71l122.88-122.88c5.554-5.561 13.229-9.003 21.707-9.011h0.001c8.48 0.008 16.154 3.45 21.708 9.011l286.72 286.72c5.521 5.553 8.933 13.207 8.933 21.658 0 8.502-3.454 16.197-9.035 21.759z" />
<glyph unicode="&#xe93a;" glyph-name="common-059-check_circle" d="M512 71.68c-214.905 0.001-389.119 174.215-389.119 389.12 0 107.452 43.554 204.732 113.97 275.149 70.36 70.077 167.41 113.401 274.579 113.401 214.905 0 389.12-174.215 389.12-389.12 0-107.169-43.324-204.219-113.414-274.591-70.015-70.389-166.957-113.96-274.076-113.96-0.373 0-0.745 0.001-1.118 0.002zM512 808.96c-192.283 0-348.16-155.877-348.16-348.16s155.877-348.16 348.16-348.16c192.283 0 348.16 155.877 348.16 348.16s-155.877 348.16-348.16 348.16zM738.406 625.869c-5.632 5.385-13.284 8.699-21.709 8.699s-16.076-3.314-21.721-8.71l-264.897-265-101.171 101.171c-5.558 5.551-13.232 8.984-21.709 8.984-16.957 0-30.705-13.738-30.72-30.692 0.008-8.481 3.45-16.156 9.011-21.71l122.88-122.88c5.554-5.561 13.229-9.003 21.707-9.011h0.001c8.48 0.008 16.154 3.45 21.708 9.011l286.72 286.72c5.521 5.553 8.933 13.207 8.933 21.658 0 8.502-3.454 16.197-9.035 21.759z" />
<glyph unicode="&#xe93b;" glyph-name="common-060-chevron-right" d="M636.109 439.091l-204.8-204.8c-5.471-5.108-12.841-8.245-20.943-8.245-16.966 0-30.72 13.754-30.72 30.72 0 8.102 3.136 15.471 8.261 20.96l183.075 183.073-183.091 183.091c-5.551 5.558-8.984 13.232-8.984 21.709s3.433 16.151 8.984 21.709c5.632 5.384 13.283 8.699 21.708 8.699s16.076-3.314 21.721-8.71l204.788-204.789c5.551-5.558 8.984-13.232 8.984-21.709s-3.433-16.151-8.984-21.709z" />
<glyph unicode="&#xe93c;" glyph-name="common-061-chevron-down" d="M747.52 563.2c-0.008-8.48-3.45-16.154-9.011-21.708l-204.8-204.8c-5.558-5.551-13.232-8.984-21.709-8.984s-16.151 3.433-21.709 8.984l-204.8 204.8c-5.108 5.471-8.245 12.841-8.245 20.943 0 16.966 13.754 30.72 30.72 30.72 8.102 0 15.471-3.136 20.96-8.261l183.073-183.075 183.091 183.091c5.642 5.362 13.29 8.66 21.709 8.66s16.066-3.298 21.722-8.673c5.548-5.542 8.99-13.216 8.998-21.695z" />
<glyph unicode="&#xe93d;" glyph-name="common-062-chevron-left" d="M645.12 256c-0.015-16.955-13.763-30.693-30.72-30.693-8.476 0-16.151 3.433-21.709 8.984l-204.8 204.8c-5.551 5.558-8.984 13.232-8.984 21.709s3.433 16.151 8.984 21.709l204.8 204.8c5.471 5.108 12.841 8.245 20.943 8.245 16.966 0 30.72-13.754 30.72-30.72 0-8.102-3.136-15.471-8.261-20.96l-183.075-183.073 183.091-183.091c5.561-5.554 9.003-13.229 9.011-21.707z" />
<glyph unicode="&#xe93e;" glyph-name="common-063-chevron-up" d="M738.509 336.691c-5.558-5.551-13.232-8.984-21.709-8.984s-16.151 3.433-21.709 8.984l-183.091 183.091-183.091-183.091c-5.632-5.385-13.284-8.699-21.709-8.699s-16.076 3.314-21.721 8.71c-5.539 5.547-8.972 13.221-8.972 21.698s3.433 16.151 8.984 21.709l204.8 204.8c5.558 5.551 13.232 8.984 21.709 8.984s16.151-3.433 21.709-8.984l204.8-204.8c5.551-5.558 8.984-13.232 8.984-21.709s-3.433-16.151-8.984-21.709z" />
<glyph unicode="&#xe93f;" glyph-name="common-064-arrow-right" d="M580.096 296.96c-4.398 4.424-7.117 10.522-7.117 17.254s2.719 12.831 7.118 17.256l104.652 104.959h-404.378c-13.46 0-24.371 10.911-24.371 24.371s10.911 24.371 24.371 24.371h404.378l-104.653 104.653c-4.499 4.435-7.286 10.596-7.286 17.408 0 13.497 10.941 24.438 24.438 24.438 6.685 0 12.743-2.684 17.155-7.033l146.429-146.532c4.398-4.424 7.117-10.522 7.117-17.254s-2.719-12.831-7.118-17.256l-146.431-146.636c-4.402-4.362-10.462-7.057-17.152-7.057s-12.75 2.695-17.154 7.059z" />
<glyph unicode="&#xe940;" glyph-name="common-065-arrow-down" d="M348.16 392.704c4.424 4.398 10.522 7.117 17.254 7.117s12.831-2.719 17.256-7.118l104.959-104.652v404.378c0 13.46 10.911 24.371 24.371 24.371s24.371-10.911 24.371-24.371v-404.378l104.653 104.653c4.435 4.499 10.596 7.286 17.408 7.286 13.497 0 24.438-10.941 24.438-24.438 0-6.685-2.684-12.743-7.033-17.155l-146.532-146.429c-4.424-4.398-10.522-7.117-17.254-7.117s-12.831 2.719-17.256 7.118l-146.636 146.431c-4.362 4.402-7.057 10.462-7.057 17.152s2.695 12.75 7.059 17.154z" />
<glyph unicode="&#xe941;" glyph-name="common-066-arrow-left" d="M443.904 624.64c4.398-4.424 7.117-10.522 7.117-17.254s-2.719-12.831-7.118-17.256l-104.652-104.959h404.378c13.46 0 24.371-10.911 24.371-24.371s-10.911-24.371-24.371-24.371h-404.378l104.653-104.653c4.499-4.435 7.286-10.596 7.286-17.408 0-13.497-10.941-24.438-24.438-24.438-6.685 0-12.743 2.684-17.155 7.033l-146.429 146.532c-4.398 4.424-7.117 10.522-7.117 17.254s2.719 12.831 7.118 17.256l146.431 146.636c4.402 4.362 10.462 7.057 17.152 7.057s12.75-2.695 17.154-7.059z" />
<glyph unicode="&#xe942;" glyph-name="common-067-arrow-up" d="M675.84 528.896c-4.424-4.398-10.522-7.117-17.254-7.117s-12.831 2.719-17.256 7.118l-104.959 104.652v-404.378c0-13.46-10.911-24.371-24.371-24.371s-24.371 10.911-24.371 24.371v404.378l-104.653-104.653c-4.435-4.499-10.596-7.286-17.408-7.286-13.497 0-24.438 10.941-24.438 24.438 0 6.685 2.684 12.743 7.033 17.155l146.532 146.429c4.424 4.398 10.522 7.117 17.254 7.117s12.831-2.719 17.256-7.118l146.636-146.431c4.362-4.402 7.057-10.462 7.057-17.152s-2.695-12.75-7.059-17.154z" />
<glyph unicode="&#xe943;" glyph-name="common-068-earth" d="M801.587 750.387c-74.586 77.149-179.010 125.046-294.62 125.046-226.216 0-409.6-183.384-409.6-409.6 0-115.611 47.897-220.034 124.931-294.51 74.701-77.259 179.125-125.157 294.736-125.157 226.216 0 409.6 183.384 409.6 409.6 0 115.611-47.897 220.034-124.931 294.51zM855.962 593.92c-7.987 14.336-28.058 21.197-54.272 30.106-28.16 9.626-38.093 38.502-49.562 71.68-10.24 29.082-20.48 59.085-44.851 77.824 67.088-42.482 118.716-104.083 147.805-177.106zM740.966 453.018c3.072-27.75 6.349-56.422-28.16-95.13-8.77-11.496-15.762-24.916-20.239-39.439-13.553-36.542-26.148-70.334-79.908-70.744-5.202 8.602-8.655 18.812-9.607 29.739-3.5 20.027-5.548 45.627-7.699 72.559-2.377 46.564-8.522 90.26-18.187 132.615-12.123 44.742-34.139 74.13-66.19 84.882-12.856 4.415-27.669 6.965-43.078 6.965-0.227 0-0.455-0.001-0.682-0.002-10.939-0.142-21.58-0.956-32.018-2.404-4.304-0.678-11.025-1.267-17.842-1.48l-0.281-0.007c-9.626 0-20.48 0-33.792 30.72-19.251 44.032-5.018 114.586 51.2 151.859 30.72 20.48 52.224 29.082 71.68 29.082 20.538-1.359 39.331-7.775 55.471-18.001 18.027-10.405 40.231-16.713 63.908-16.713 0.007 0 0.013 0 0.020 0 6.245 0 11.877 0 17.407 0.614s8.909 0.512 12.902 0.512c0.666 0.040 1.445 0.062 2.229 0.062 8.466 0 16.319-2.628 22.787-7.112 15.637-10.665 23.829-34.524 32.431-59.612 13.107-38.195 27.955-81.92 75.162-97.485 6.349-2.15 17.203-5.837 24.986-9.114-6.656-6.861-17.818-16.794-28.672-26.624-7.066-6.349-15.053-13.414-23.859-21.504-25.6-23.347-22.528-50.586-19.866-74.65v0zM143.36 463.974l14.131-3.174c14.457-2.493 27.381-6.587 39.471-12.178-4.188-5.242-7.303-9.99-10.672-14.538-9.957-13.937-22.45-31.857-17.637-51.517 0.723-4.247 1.136-9.139 1.136-14.127 0-10.956-1.994-21.447-5.638-31.128-13.099 37.039-20.791 79.097-20.791 122.952 0 0.189 0 0.378 0 0.566 0 0.995 0 2.019 0 3.145v0zM512 92.16c-139.797 0.053-261.396 77.914-323.849 192.625 9.276 22.415 29.756 67.573 20.335 107.202 3.172 7.391 7.017 13.765 11.601 19.525 10.927 15.598 24.751 35.156 14.511 55.944-7.168 14.541-26.419 24.371-64.102 32.87-8.704 1.434-16.896 3.482-24.474 4.71 22.885 183.622 177.996 324.306 365.964 324.306 65.43 0 126.879-17.046 180.148-46.94-11.436 5.123-22.594 7.547-34.319 7.547-0.864 0-1.724-0.013-2.582-0.039-5.097 0.003-10.114 0.003-15.234-0.611s-10.24-0.614-14.95-0.614c-0.287-0.003-0.627-0.005-0.967-0.005-16.401 0-31.781 4.372-45.039 12.014-20.748 12.88-46.201 21.105-73.481 22.285-27.97 0.011-56.13-10.229-94.223-35.829-32.939-22.196-57.571-54.523-69.601-92.459-5.476-16.025-8.443-33.070-8.443-50.808 0-21.344 4.296-41.684 12.071-60.203 16.309-37.17 38.325-54.168 71.298-54.168v0c8.747 0.189 17.141 0.89 25.377 2.077 6.537 0.987 15.535 1.725 24.669 1.913 0.499 0.006 0.815 0.008 1.13 0.008 10.667 0 20.921-1.763 30.489-5.014 17.355-5.845 30.565-25.915 40.293-61.243 8.038-35.077 13.744-76.291 15.902-118.443 1.702-34.177 5.358-64.431 10.968-93.993 1.817-8.568 6.413-19.873 12.791-29.937 6.861-10.732 19.077-18.054 33.016-18.235 1.633-0.084 3.514-0.131 5.406-0.131 31.727 0 60.33 13.372 80.482 34.788 14.393 17.427 25.75 37.879 32.968 60.192 3.627 11.795 7.978 20.926 13.425 29.275 46.332 51.901 41.519 94.909 37.935 126.448-2.56 23.142-2.662 31.334 6.758 39.834l23.552 21.197c14.848 13.21 25.6 22.835 33.178 30.72 8.678 7.744 14.115 18.96 14.115 31.447 0 1.403-0.069 2.79-0.203 4.157 13.532-36.968 21.351-79.456 21.351-123.77 0-203.464-164.834-368.428-368.248-368.64h-0.020z" />
<glyph unicode="&#xe944;" glyph-name="common-069-icons" d="M266.24 71.68h-81.92c-33.932 0-61.44 27.508-61.44 61.44v81.92c0 33.932 27.508 61.44 61.44 61.44h81.92c33.932 0 61.44-27.508 61.44-61.44v-81.92c0-33.932-27.508-61.44-61.44-61.44zM184.32 235.52c-11.311 0-20.48-9.169-20.48-20.48v-81.92c0-11.311 9.169-20.48 20.48-20.48h81.92c11.311 0 20.48 9.169 20.48 20.48v81.92c0 11.311-9.169 20.48-20.48 20.48h-81.92zM552.96 71.68h-81.92c-33.932 0-61.44 27.508-61.44 61.44v81.92c0 33.932 27.508 61.44 61.44 61.44h81.92c33.932 0 61.44-27.508 61.44-61.44v-81.92c0-33.932-27.508-61.44-61.44-61.44zM471.040 235.52c-11.311 0-20.48-9.169-20.48-20.48v-81.92c0-11.311 9.169-20.48 20.48-20.48h81.92c11.311 0 20.48 9.169 20.48 20.48v81.92c0 11.311-9.169 20.48-20.48 20.48h-81.92zM839.68 71.68h-81.92c-33.932 0-61.44 27.508-61.44 61.44v81.92c0 33.932 27.508 61.44 61.44 61.44h81.92c33.932 0 61.44-27.508 61.44-61.44v-81.92c0-33.932-27.508-61.44-61.44-61.44zM757.76 235.52c-11.311 0-20.48-9.169-20.48-20.48v-81.92c0-11.311 9.169-20.48 20.48-20.48h81.92c11.311 0 20.48 9.169 20.48 20.48v81.92c0 11.311-9.169 20.48-20.48 20.48h-81.92zM266.24 358.4h-81.92c-33.932 0-61.44 27.508-61.44 61.44v81.92c0 33.932 27.508 61.44 61.44 61.44h81.92c33.932 0 61.44-27.508 61.44-61.44v-81.92c0-33.932-27.508-61.44-61.44-61.44zM184.32 522.24c-11.311 0-20.48-9.169-20.48-20.48v-81.92c0-11.311 9.169-20.48 20.48-20.48h81.92c11.311 0 20.48 9.169 20.48 20.48v81.92c0 11.311-9.169 20.48-20.48 20.48h-81.92zM552.96 358.4h-81.92c-33.932 0-61.44 27.508-61.44 61.44v81.92c0 33.932 27.508 61.44 61.44 61.44h81.92c33.932 0 61.44-27.508 61.44-61.44v-81.92c0-33.932-27.508-61.44-61.44-61.44zM471.040 522.24c-11.311 0-20.48-9.169-20.48-20.48v-81.92c0-11.311 9.169-20.48 20.48-20.48h81.92c11.311 0 20.48 9.169 20.48 20.48v81.92c0 11.311-9.169 20.48-20.48 20.48h-81.92zM839.68 358.4h-81.92c-33.932 0-61.44 27.508-61.44 61.44v81.92c0 33.932 27.508 61.44 61.44 61.44h81.92c33.932 0 61.44-27.508 61.44-61.44v-81.92c0-33.932-27.508-61.44-61.44-61.44zM757.76 522.24c-11.311 0-20.48-9.169-20.48-20.48v-81.92c0-11.311 9.169-20.48 20.48-20.48h81.92c11.311 0 20.48 9.169 20.48 20.48v81.92c0 11.311-9.169 20.48-20.48 20.48h-81.92zM266.24 645.12h-81.92c-33.932 0-61.44 27.508-61.44 61.44v81.92c0 33.932 27.508 61.44 61.44 61.44h81.92c33.932 0 61.44-27.508 61.44-61.44v-81.92c0-33.932-27.508-61.44-61.44-61.44zM184.32 808.96c-11.311 0-20.48-9.169-20.48-20.48v-81.92c0-11.311 9.169-20.48 20.48-20.48h81.92c11.311 0 20.48 9.169 20.48 20.48v81.92c0 11.311-9.169 20.48-20.48 20.48h-81.92zM552.96 645.12h-81.92c-33.932 0-61.44 27.508-61.44 61.44v81.92c0 33.932 27.508 61.44 61.44 61.44h81.92c33.932 0 61.44-27.508 61.44-61.44v-81.92c0-33.932-27.508-61.44-61.44-61.44zM471.040 808.96c-11.311 0-20.48-9.169-20.48-20.48v-81.92c0-11.311 9.169-20.48 20.48-20.48h81.92c11.311 0 20.48 9.169 20.48 20.48v81.92c0 11.311-9.169 20.48-20.48 20.48h-81.92zM839.68 645.12h-81.92c-33.932 0-61.44 27.508-61.44 61.44v81.92c0 33.932 27.508 61.44 61.44 61.44h81.92c33.932 0 61.44-27.508 61.44-61.44v-81.92c0-33.932-27.508-61.44-61.44-61.44zM757.76 808.96c-11.311 0-20.48-9.169-20.48-20.48v-81.92c0-11.311 9.169-20.48 20.48-20.48h81.92c11.311 0 20.48 9.169 20.48 20.48v81.92c0 11.311-9.169 20.48-20.48 20.48h-81.92z" />
<glyph unicode="&#xe945;" glyph-name="common-070-pointer" d="M512 112.64c-0.006 0-0.013 0-0.020 0-8.582 0-15.931 5.278-18.977 12.765l-69.579 174.217-121.344-139.059c-3.771-4.261-9.253-6.934-15.36-6.934-11.3 0-20.463 9.152-20.48 20.449v614.402c0 0.013 0 0.029 0 0.045 0 11.311 9.169 20.48 20.48 20.48 5.335 0 10.194-2.040 13.839-5.383l450.545-409.586c4.126-3.76 6.705-9.157 6.705-15.155 0-11.311-9.169-20.48-20.48-20.48-0.017 0-0.035 0-0.052 0h-174.077l70.656-176.64c0.931-2.257 1.472-4.877 1.472-7.623 0-8.557-5.248-15.889-12.702-18.951l-102.536-41.010c-2.302-0.973-4.979-1.538-7.787-1.538-0.106 0-0.212 0.001-0.318 0.002h0.016zM430.080 358.4c0.006 0 0.013 0 0.020 0 8.582 0 15.931-5.278 18.977-12.765l74.289-185.891 64.41 25.805-74.342 185.754c-0.92 2.244-1.453 4.848-1.453 7.578 0 11.311 9.169 20.48 20.48 20.48 0.007 0 0.014 0 0.021 0h151.858l-377.139 342.938v-513.638l107.52 122.88c3.768 4.218 9.223 6.861 15.295 6.861 0.023 0 0.045 0 0.068 0h-0.004z" />
<glyph unicode="&#xe946;" glyph-name="common-071-exit" d="M604.16 577.126c11.311 0 20.48 9.169 20.48 20.48v163.84c0 33.932-27.508 61.44-61.44 61.44h-368.64c-33.932 0-61.44-27.508-61.44-61.44v-491.52c1.459-33.405 21.273-61.859 49.551-75.648l211.876-90.854c6.416-2.895 13.901-4.62 21.778-4.71 0.098-0.001 0.176-0.001 0.253-0.001 8.832 0 17.048 2.637 23.904 7.167 12.303 8.696 20.345 23.038 20.345 39.259 0 0.563-0.010 1.123-0.029 1.682l0.002 61.359h102.4c33.932 0 61.44 27.508 61.44 61.44v163.84c0 11.311-9.169 20.48-20.48 20.48s-20.48-9.169-20.48-20.48v-163.84c0-11.311-9.169-20.48-20.48-20.48h-102.4v389.12c-1.435 33.413-21.258 61.876-49.551 75.649l-157.912 68.019h309.862c11.311 0 20.48-9.169 20.48-20.48v-163.84c0-11.311 9.169-20.48 20.48-20.48v0zM394.547 676.864c14.172-7.503 23.964-21.623 25.282-38.132l0.011-491.686c0.039-0.335 0.061-0.724 0.061-1.118 0-2.231-0.714-4.296-1.925-5.978-0.632-0.118-1.382-0.203-2.151-0.203-1.876 0-3.635 0.505-5.147 1.386l-211.407 90.495c-14.156 7.497-23.924 21.628-25.181 38.139l-0.010 491.679c0 0.025 0 0.054 0 0.084 0 3.248 0.756 6.319 2.102 9.047zM884.941 530.227c3.711-3.707 6.007-8.83 6.007-14.49s-2.296-10.783-6.006-14.489l-122.88-122.88c-3.717-3.73-8.86-6.038-14.541-6.038-11.337 0-20.528 9.191-20.528 20.528 0 5.656 2.287 10.777 5.987 14.49l87.961 87.859h-257.741c-11.311 0-20.48 9.169-20.48 20.48s9.169 20.48 20.48 20.48h257.741l-87.962 87.859c-3.708 3.708-6.002 8.831-6.002 14.49 0 11.317 9.174 20.491 20.491 20.491 5.659 0 10.781-2.294 14.49-6.002l122.88-122.88z" />
<glyph unicode="&#xe947;" glyph-name="common-072-pin" d="M882.995 596.685l-235.52 235.52c-8.050 7.994-19.141 12.935-31.386 12.935s-23.336-4.941-31.388-12.938l-12.593-13.002c-13.139-14.092-21.451-32.835-22.216-53.507l-0.004-44.592c-0.837-8.537-4.178-16.166-9.27-22.287l-123.953-124.247c-6.055-5.038-13.684-8.379-22.052-9.203l-44.508-0.013c-20.685-1.020-39.224-9.449-53.184-22.666l-12.967-12.969c-8.019-8.038-12.977-19.133-12.977-31.386s4.958-23.347 12.978-31.386l68.914-68.914-220.262-285.389c-2.86-3.702-4.584-8.408-4.584-13.517 0-12.264 9.935-22.207 22.195-22.221 5.201 0.083 9.946 1.964 13.656 5.047l285.66 219.312 68.915-68.915c8.050-7.994 19.141-12.935 31.386-12.935s23.336 4.941 31.388 12.938l12.695 13.412c13.139 14.092 21.451 32.835 22.216 53.507l0.004 44.080c0.837 8.537 4.178 16.166 9.27 22.287l124.362 123.94c6.055 5.038 13.684 8.379 22.052 9.203l44.611 0.013c20.934 0.691 39.799 9.017 54.015 22.267l12.955 12.959c7.994 8.050 12.935 19.141 12.935 31.386s-4.941 23.336-12.938 31.388zM271.667 220.467l112.64 146.227 33.792-33.792zM838.656 552.346c-6.055-5.038-13.684-8.379-22.052-9.203l-44.611-0.013c-20.822-0.77-39.566-9.082-53.707-22.266l-124.367-123.961c-13.139-14.092-21.451-32.835-22.216-53.507l-0.004-44.592c-0.595-8.502-3.699-16.181-8.567-22.414l-12.937-12.914-235.52 235.52 13.005 13.005c6.055 5.038 13.684 8.379 22.052 9.203l44.611 0.013c20.772 0.533 39.562 8.603 53.828 21.565l123.938 124.355c12.99 14.138 21.162 32.885 21.808 53.529l0.003 44.468c0.837 8.537 4.178 16.166 9.27 22.287l12.951 12.938 235.52-235.52z" />
<glyph unicode="&#xe948;" glyph-name="common-073-clip" d="M237.978 157.286c-33.91 33.988-54.878 80.901-54.878 132.71s20.968 98.722 54.882 132.714l353.891 353.788c26.452 26.503 63.023 42.9 103.424 42.9 80.699 0 146.119-65.42 146.119-146.119 0-40.299-16.314-76.787-42.697-103.221l-324.811-324.299c-18.869-18.869-44.935-30.539-73.728-30.539-57.585 0-104.267 46.682-104.267 104.267 0 28.793 11.67 54.859 30.539 73.728l176.947 176.845c3.737 3.687 8.873 5.964 14.541 5.964 11.437 0 20.709-9.272 20.709-20.709 0-5.77-2.359-10.988-6.166-14.743l-176.54-176.847c-10.955-11.257-17.711-26.649-17.711-43.618 0-34.554 28.012-62.566 62.566-62.566 16.97 0 32.361 6.756 43.632 17.725l324.287 324.287c18.978 18.914 30.72 45.078 30.72 73.984 0 57.685-46.763 104.448-104.448 104.448-28.779 0-54.839-11.639-73.731-30.467l-353.789-354.301c-26.416-26.416-42.755-62.91-42.755-103.219 0-80.619 65.355-145.974 145.974-145.974 40.31 0 76.803 16.339 103.219 42.755l206.336 206.438c3.774 3.774 8.987 6.108 14.746 6.108 11.517 0 20.853-9.336 20.853-20.853 0-5.759-2.334-10.972-6.108-14.746l-206.336-206.438c-33.988-33.91-80.901-54.878-132.71-54.878s-98.722 20.968-132.714 54.882z" />
</font>
</defs>
</svg>
